<svg xmlns="http://www.w3.org/2000/svg"><defs><symbol id="icon-add-link" viewBox="0 0 32 32"><path d="M19.75 2c-1.672 0-3.258.66-4.438 1.844l-1.468 1.47C12.66 6.495 12 8.076 12 9.748c0 .793.152 1.566.438 2.28l1.624-1.624c-.203-1.297.192-2.69 1.188-3.687l1.47-1.47C17.522 4.445 18.612 4 19.75 4c1.137 0 2.195.445 3 1.25 1.66 1.66 1.66 4.37 0 6.03l-.72.72c.857.004 1.68.11 2.47.313.977-1.133 1.5-2.55 1.5-4.063 0-1.672-.66-3.223-1.844-4.406C22.976 2.66 21.422 2 19.75 2zm-2.47 7.28l-8 8 1.44 1.44 8-8zM9.75 12c-1.672 0-3.258.66-4.438 1.844l-1.468 1.47C2.66 16.494 2 18.076 2 19.748c0 1.672.66 3.223 1.844 4.406C5.024 25.34 6.578 26 8.25 26c1.512 0 2.93-.523 4.063-1.5-.204-.793-.31-1.613-.313-2.47l-.72.72c-.803.805-1.893 1.25-3.03 1.25-1.137 0-2.195-.445-3-1.25-1.66-1.66-1.66-4.37 0-6.03l1.47-1.47C7.522 14.445 8.612 14 9.75 14c.223 0 .44.023.656.063l1.625-1.626c-.714-.285-1.487-.437-2.28-.437zM22 14c-4.406 0-8 3.594-8 8 0 4.406 3.594 8 8 8 4.406 0 8-3.594 8-8 0-4.406-3.594-8-8-8zm0 2c3.324 0 6 2.676 6 6s-2.676 6-6 6-6-2.676-6-6 2.676-6 6-6zm-1 2v3h-3v2h3v3h2v-3h3v-2h-3v-3z"/></symbol><symbol id="icon-add-text" viewBox="0 0 32 32"><path d="M15 6L8 26h2l2.098-6h4.992c-.688 1.18-1.09 2.543-1.09 4 0 4.398 3.602 8 8 8s8-3.602 8-8-3.602-8-8-8c-1.16 0-2.258.254-3.254.703L17 6zm1 2.86l3.094 8.84c-.12.097-.242.195-.36.3H12.8zM24 18c3.3 0 6 2.7 6 6s-2.7 6-6 6-6-2.7-6-6 2.7-6 6-6zm-1 2v3h-3v2h3v3h2v-3h3v-2h-3v-3z"/></symbol><symbol id="icon-airport" viewBox="0 0 32 32"><path d="M16 3c-1.645 0-3 1.355-3 3v7.344l-8.406 3.75-.594.25v4.78l9-1v1.845l-2.563 1.718-.437.28v4.25l1.188-.25L16 28l4.813.97 1.187.25v-4.25l-.438-.282L19 22.968v-1.843l9 1v-4.78l-.594-.25L19 13.344V6c0-1.645-1.355-3-3-3zm0 2c.566 0 1 .434 1 1v8.656l.594.25L26 18.656v1.22l-9-1v5.186l.438.282L20 26.062v.72l-3.813-.75-.187-.063-.188.06-3.812.75v-.718l2.563-1.718.437-.282v-5.187l-9 1v-1.22l8.406-3.75.594-.25V6c0-.566.434-1 1-1z"/></symbol><symbol id="icon-align-bottom" viewBox="0 0 32 32"><path d="M6 5v18h9V5zm2 2h5v14H8zm9 3v13h9V10zM4 25v2h24v-2z"/></symbol><symbol id="icon-align-center" viewBox="0 0 32 32"><path d="M3 7v2h26V7zm4 4v2h18v-2zm-4 4v2h26v-2zm4 4v2h18v-2zm-4 4v2h26v-2z"/></symbol><symbol id="icon-align-justify" viewBox="0 0 32 32"><path d="M3 7v2h26V7zm0 4v2h26v-2zm0 4v2h26v-2zm0 4v2h26v-2zm0 4v2h26v-2z"/></symbol><symbol id="icon-align-right" viewBox="0 0 32 32"><path d="M3 7v2h26V7zm8 4v2h18v-2zm-8 4v2h26v-2zm8 4v2h18v-2zm-8 4v2h26v-2z"/></symbol><symbol id="icon-align-top" viewBox="0 0 32 32"><path d="M4 5v2h24V5zm2 4v18h9V9zm11 0v13h9V9zm-9 2h5v14H8z"/></symbol><symbol id="icon-available-updates" viewBox="0 0 32 32"><path d="M16 4C9.383 4 4 9.383 4 16h2c0-5.516 4.484-10 10-10 3.695 0 6.926 2.012 8.656 5H21v2h7V6h-2v3.406C23.855 6.152 20.18 4 16 4zm10 12c0 5.516-4.484 10-10 10-3.695 0-6.926-2.012-8.656-5H11v-2H4v7h2v-3.406C8.145 25.848 11.82 28 16 28c6.617 0 12-5.383 12-12z"/></symbol><symbol id="icon-bill" viewBox="0 0 32 32"><path d="M6 4v24h20V4zm2 2h16v20H8zm2 4v2h12v-2zm0 6v2h7v-2zm9 0v2h3v-2zm-9 4v2h7v-2zm9 0v2h3v-2z"/></symbol><symbol id="icon-bold" viewBox="0 0 32 32"><path d="M16 7c2.8 0 5 2.2 5 5 0 1.3-.5 2.398-1.3 3.3C21.6 16 23 17.8 23 20c0 2.8-2.2 5-5 5H7V7h9m-7 8h7c1.7 0 3-1.3 3-3s-1.3-3-3-3H9v6m0 8h9c1.7 0 3-1.3 3-3s-1.3-3-3-3H9v6m7-18H5v22h13c3.898 0 7-3.102 7-7 0-2.102-1-4.102-2.5-5.398.3-.8.5-1.704.5-2.602 0-3.898-3.102-7-7-7zm-5 6h5c.602 0 1 .398 1 1s-.398 1-1 1h-5zm0 8h7c.602 0 1 .398 1 1s-.398 1-1 1h-7z"/></symbol><symbol id="icon-bring-forward" viewBox="0 0 32 32"><path d="M5 5v14h8v8h14V13h-8V5zm2 2h10v10H7z"/></symbol><symbol id="icon-broken-chain-link" viewBox="0 0 32 32"><path d="M21.75 4c-1.602 0-3.22.625-4.438 1.844l-1.468 1.468c-1.016 1.016-1.617 2.305-1.78 3.625l1.998.25c.114-.906.497-1.777 1.188-2.468l1.47-1.47c1.67-1.672 4.358-1.672 6.03 0 1.672 1.672 1.672 4.36 0 6.03l-1.47 1.47h-.03c-.69.695-1.535 1.078-2.438 1.188l.25 2c1.32-.165 2.61-.766 3.625-1.782l1.47-1.468c2.433-2.434 2.433-6.41 0-8.844C24.936 4.624 23.35 4 21.75 4zM7.72 6.28L6.28 7.72l4 4 1.44-1.44zm3.218 7.782c-1.32.165-2.61.766-3.626 1.782l-1.468 1.47c-2.434 2.432-2.434 6.41 0 8.842 2.433 2.434 6.41 2.434 8.843 0l1.47-1.468c1.015-1.016 1.616-2.305 1.78-3.625l-2-.25c-.113.906-.496 1.777-1.187 2.468l-1.47 1.47c-1.67 1.672-4.358 1.672-6.03 0-1.672-1.672-1.672-4.36 0-6.03l1.47-1.47h.03c.69-.695 1.535-1.078 2.438-1.188zm10.78 6.22l-1.437 1.437 4 4 1.44-1.44z"/></symbol><symbol id="icon-caps-lock-on" viewBox="0 0 32 32"><path d="M16 4.094L5.094 15H11v7h10v-7h5.906zm0 2.843L22.063 13H19v7h-6v-7H9.937zM11 23v5h10v-5zm2 2h6v1h-6z"/></symbol><symbol id="icon-card-payment" viewBox="0 0 32 32"><path d="M13 7c-.887 0-1.7.383-2.25 1-1.266.098-2.195.887-3.094 1.656l-.343.313C6.59 10.573 4.418 12.38 3 13.56v2.594c.234-.195 4.516-3.754 5.594-4.656l.375-.313c.41-.35.725-.613 1.03-.812v6.72c-.375.206-1.094.593-1.094.593l.938 1.75s3.828-2.102 4.28-2.344c1.07-.578 1.728-1.094 2.72-1.094.652 0 1.156.52 1.156 1.28 0 .45-.098.618-.28.845-.185.227-.51.492-.97.78-1.086.68-2.28 1.845-2.28 1.845l-.064.094-.062.062C13.184 22.598 11.69 24 9.03 24H3v2h6.03c3.314 0 5.478-1.883 6.845-3.813 0 0 .723-.67 1.375-1.187H26c1.648 0 3-1.352 3-3v-8c0-1.648-1.352-3-3-3zm0 2h13c.563 0 1 .438 1 1v1H13v2h14v5c0 .563-.438 1-1 1h-6.438c.278-.484.438-1.07.438-1.72C20 15.51 18.61 14 16.844 14c-1.696 0-2.836.883-3.688 1.344-.136.074-.683.363-1.156.625V10c0-.563.438-1 1-1z"/></symbol><symbol id="icon-check-mark-symbol" viewBox="0 0 32 32"><path d="M16 3C8.832 3 3 8.832 3 16s5.832 13 13 13 13-5.832 13-13S23.168 3 16 3zm0 2c6.086 0 11 4.914 11 11s-4.914 11-11 11S5 22.086 5 16 9.914 5 16 5zm6.28 6.28L15 18.564l-4.28-4.282-1.44 1.44 5 5 .72.686.72-.687 8-8z"/></symbol><symbol id="icon-checkout" viewBox="0 0 32 32"><path d="M4 7c-.55 0-1 .45-1 1s.45 1 1 1h2.22l2.624 10.5c.222.89 1.02 1.5 1.937 1.5h12.47c.902 0 1.668-.598 1.906-1.47L27.75 10h-2.094l-2.406 9H10.78L8.157 8.5C7.934 7.61 7.136 7 6.22 7zm18 14c-1.645 0-3 1.355-3 3s1.355 3 3 3 3-1.355 3-3-1.355-3-3-3zm-9 0c-1.645 0-3 1.355-3 3s1.355 3 3 3 3-1.355 3-3-1.355-3-3-3zm5-13v3h-5v2h5v3l4-4zm-5 15c.563 0 1 .438 1 1 0 .563-.438 1-1 1-.563 0-1-.438-1-1 0-.563.438-1 1-1zm9 0c.563 0 1 .438 1 1 0 .563-.438 1-1 1-.563 0-1-.438-1-1 0-.563.438-1 1-1z"/></symbol><symbol id="icon-circled-question-mark" viewBox="0 0 32 32"><path d="M16 4C9.383 4 4 9.383 4 16s5.383 12 12 12 12-5.383 12-12S22.617 4 16 4zm0 2c5.535 0 10 4.465 10 10s-4.465 10-10 10S6 21.535 6 16 10.465 6 16 6zm0 4c-2.2 0-4 1.8-4 4h2c0-1.117.883-2 2-2s2 .883 2 2c0 .766-.492 1.445-1.22 1.688l-.405.124c-.816.27-1.375 1.05-1.375 1.907V19h2v-1.28l.406-.126C18.946 17.082 20 15.62 20 14c0-2.2-1.8-4-4-4zm-1 10v2h2v-2z"/></symbol><symbol id="icon-clear-filters" viewBox="0 0 32 32"><path d="M5 4v2.344l.22.28 7.78 9.72V28.03l1.594-1.25 1.562-1.186C16.906 29.234 20.146 32 24 32c4.406 0 8-3.594 8-8 0-4.406-3.594-8-8-8-1.887 0-3.63.68-5 1.78v-1.436l7.78-9.72.22-.28V4zm2.28 2h17.44l-7.19 9h-3.06zM15 17h2v3.125c-.512.922-.855 1.965-.97 3.063L15 24zm9 1c3.324 0 6 2.676 6 6s-2.676 6-6 6-6-2.676-6-6 2.676-6 6-6zm-2.28 2.28l-1.44 1.44L22.563 24l-2.28 2.28 1.437 1.44L24 25.437l2.28 2.28 1.44-1.437L25.437 24l2.28-2.28-1.437-1.44L24 22.563z"/></symbol><symbol id="icon-clockwise-arrow" viewBox="0 0 32 32"><path d="M16 3C8.832 3 3 8.832 3 16s5.832 13 13 13 13-5.832 13-13h-2c0 6.086-4.914 11-11 11S5 22.086 5 16 9.914 5 16 5c3.875 0 7.262 1.984 9.22 5H20v2h8V4h-2v3.72C23.617 4.843 20.02 3 16 3z"/></symbol><symbol id="icon-copy-to-clipboard" viewBox="0 0 32 32"><path d="M14 3c-1.258 0-2.152.89-2.594 2H4v20h20V5h-7.406C16.152 3.89 15.258 3 14 3zm0 2c.566 0 1 .434 1 1v1h3v2h-8V7h3V6c0-.566.434-1 1-1zM6 7h2v4h12V7h2v16H6zm8 8v2h2v-2zm4 0v2h2v-2zm8 0v2h2v-2zm-12 4v2h2v-2zm12 0v2h2v-2zm0 4v2h2v-2zm-12 4v2h2v-2zm4 0v2h2v-2zm4 0v2h2v-2zm4 0v2h2v-2z"/></symbol><symbol id="icon-copy" viewBox="0 0 32 32"><path d="M4 4v20h7v-2H6V6h12v1h2V4zm8 4v20h16V8zm2 2h12v16H14z"/></symbol><symbol id="icon-create" viewBox="0 0 32 32"><path d="M25 4.03c-.766 0-1.516.298-2.094.876L13 14.78l-.22.22-.06.313-.69 3.5-.31 1.468 1.467-.31 3.5-.69.313-.06.22-.22 9.874-9.906c1.152-1.153 1.152-3.035 0-4.188-.578-.578-1.328-.875-2.094-.875zm0 1.94c.234 0 .465.12.688.343.445.445.445.93 0 1.375L16 17.374l-1.72.344.345-1.72 9.688-9.688c.222-.222.453-.343.687-.343zM4 8v20h20V14.812l-2 2V26H6V10h9.188l2-2z"/></symbol><symbol id="icon-crop" viewBox="0 0 32 32"><path d="M8 4v4H4v2h4v14h14v4h2v-4h4v-2H11.437L22 11.437V21h2V9.437l3.72-3.718-1.44-1.44L22.563 8H11v2h9.563L10 20.563V4z"/></symbol><symbol id="icon-debit-cards" viewBox="0 0 32 32"><path d="M5 5C3.355 5 2 6.355 2 8v12c0 1.645 1.355 3 3 3h1v1c0 1.645 1.355 3 3 3h18c1.645 0 3-1.355 3-3V12c0-1.645-1.355-3-3-3h-1V8c0-1.645-1.355-3-3-3zm0 2h18c.566 0 1 .434 1 1v1H5v2h19v9c0 .566-.434 1-1 1H5c-.566 0-1-.434-1-1V8c0-.566.434-1 1-1zm21 4h1c.566 0 1 .434 1 1v1h-2zm0 4h2v9c0 .566-.434 1-1 1H9c-.566 0-1-.434-1-1v-1h15c1.645 0 3-1.355 3-3z"/></symbol><symbol id="icon-delete-2" viewBox="0 0 32 32"><path d="M15 4c-.523 0-1.06.184-1.438.563C13.184 4.94 13 5.476 13 6v1H7v2h1v16c0 1.645 1.355 3 3 3h12c1.645 0 3-1.355 3-3V9h1V7h-6V6c0-.523-.184-1.06-.563-1.438C20.06 4.184 19.523 4 19 4zm0 2h4v1h-4zm-5 3h14v16c0 .555-.445 1-1 1H11c-.555 0-1-.445-1-1zm2 3v11h2V12zm4 0v11h2V12zm4 0v11h2V12z"/></symbol><symbol id="icon-delete-3" viewBox="0 0 32 32"><path d="M7.22 5.78L5.78 7.22 14.563 16l-8.78 8.78 1.437 1.44L16 17.437l8.78 8.78 1.44-1.437L17.437 16l8.78-8.78-1.437-1.44L16 14.563z"/></symbol><symbol id="icon-delete-button" viewBox="0 0 32 32"><path d="M16 3C8.832 3 3 8.832 3 16s5.832 13 13 13 13-5.832 13-13S23.168 3 16 3zm0 2c6.086 0 11 4.914 11 11s-4.914 11-11 11S5 22.086 5 16 9.914 5 16 5zm-3.78 5.78l-1.44 1.44L14.564 16l-3.782 3.78 1.44 1.44L16 17.437l3.78 3.78 1.44-1.437L17.437 16l3.78-3.78-1.437-1.44L16 14.564z"/></symbol><symbol id="icon-delete-link" viewBox="0 0 32 32"><path d="M21.75 4c-1.672 0-3.258.66-4.438 1.844l-1.468 1.468C14.66 8.496 14 10.079 14 11.75c0 .793.152 1.566.438 2.28l1.624-1.624c-.203-1.297.192-2.69 1.188-3.687l1.47-1.47C19.522 6.445 20.612 6 21.75 6c1.137 0 2.195.445 3 1.25 1.66 1.66 1.66 4.37 0 6.03l-.72.72c.857.004 1.68.11 2.47.313.977-1.133 1.5-2.55 1.5-4.063 0-1.672-.66-3.223-1.844-4.406C24.976 4.66 23.422 4 21.75 4zm-2.47 7.28l-8 8 1.44 1.44 8-8zM11.75 14c-1.672 0-3.258.66-4.438 1.844l-1.468 1.47C4.66 18.494 4 20.076 4 21.748c0 1.672.66 3.223 1.844 4.406C7.024 27.34 8.578 28 10.25 28c1.512 0 2.93-.523 4.063-1.5-.204-.793-.31-1.613-.313-2.47l-.72.72c-.803.805-1.893 1.25-3.03 1.25-1.137 0-2.195-.445-3-1.25-1.66-1.66-1.66-4.37 0-6.03l1.47-1.47c.803-.805 1.893-1.25 3.03-1.25.223 0 .44.023.656.063l1.625-1.625c-.714-.286-1.487-.438-2.28-.438zM24 16c-4.406 0-8 3.594-8 8 0 4.406 3.594 8 8 8 4.406 0 8-3.594 8-8 0-4.406-3.594-8-8-8zm0 2c3.324 0 6 2.676 6 6s-2.676 6-6 6-6-2.676-6-6 2.676-6 6-6zm-2.28 2.28l-1.44 1.44L22.563 24l-2.28 2.28 1.437 1.44L24 25.437l2.28 2.28 1.44-1.437L25.437 24l2.28-2.28-1.437-1.44L24 22.563z"/></symbol><symbol id="icon-delete" viewBox="0 0 32 32"><path d="M5 5v22h22V5zm2 2h18v18H7zm4.688 3.313l-1.407 1.406L14.564 16l-4.344 4.344 1.405 1.406 4.344-4.344 4.31 4.313 1.407-1.407L17.375 16l4.25-4.25-1.406-1.406-4.25 4.25z"/></symbol><symbol id="icon-download" viewBox="0 0 32 32"><path d="M15 4v16.563L9.72 15.28l-1.44 1.44 7 7 .72.686.72-.687 7-7-1.44-1.44L17 20.564V4zM7 26v2h18v-2z"/></symbol><symbol id="icon-drag-reorder" viewBox="0 0 32 32"><path d="M16 5l-4 4h8zM3 11v2h26v-2zm0 4v2h26v-2zm0 4v2h26v-2zm9 4l4 4 4-4z"/></symbol><symbol id="icon-edit" viewBox="0 0 32 32"><path d="M23.906 3.97c-1.047 0-2.093.405-2.906 1.217L5.187 21l-.062.313-1.094 5.5-.31 1.468 1.467-.31 5.5-1.095.313-.063L26.813 11c1.625-1.625 1.625-4.188 0-5.813-.813-.812-1.86-1.218-2.907-1.218zm0 1.905c.504 0 1.012.23 1.5.72.973.97.973 2.026 0 3l-.718.686-2.97-2.967.688-.72c.49-.488.996-.718 1.5-.718zM20.313 8.72l2.968 2.967-12.093 12.094c-.656-1.28-1.687-2.31-2.968-2.968zM6.938 22.436c1.2.485 2.14 1.426 2.625 2.625l-3.282.657z"/></symbol><symbol id="icon-email-address" viewBox="0 0 32 32"><path d="M16.188 4C8.823 3.89 2.914 10.484 4.155 18.03c.844 5.122 5.047 9.15 10.188 9.845 3.465.47 6.703-.53 9.156-2.5l-1.25-1.563c-2.047 1.64-4.738 2.49-7.656 2.094-4.254-.574-7.742-3.953-8.438-8.187C5.11 11.347 9.992 5.91 16.156 6c5.254.078 9.684 4.434 9.844 9.688.004.113 0 .222 0 .343-.008 2.204-1.793 3.97-4 3.97-1.117 0-2-.883-2-2v-8h-2v.78c-.72-.487-1.574-.78-2.5-.78-2.473 0-4.5 2.027-4.5 4.5v3c0 2.473 2.027 4.5 4.5 4.5 1.348 0 2.547-.613 3.375-1.563C19.61 21.372 20.73 22 22 22c3.285 0 5.988-2.68 6-5.97 0-.132.004-.26 0-.405C27.81 9.29 22.523 4.095 16.187 4zm-.688 8c1.39 0 2.5 1.11 2.5 2.5v3c0 1.39-1.11 2.5-2.5 2.5S13 18.89 13 17.5v-3c0-1.39 1.11-2.5 2.5-2.5z"/></symbol><symbol id="icon-engineer-symbol" viewBox="0 0 32 32"><path d="M8.813 3l-.688.72L3.72 8.124 3 8.813 10.188 16l-5 5-.063.313-1.094 5.5-.31 1.468 1.467-.31 5.5-1.095.313-.063 5-5 7.156 7.157.688-.72 4.406-4.406.72-.688L21.812 16l4.937-4.938c1.61-1.61 1.61-4.203 0-5.812-.805-.805-1.855-1.22-2.906-1.22-1.05 0-2.102.415-2.907 1.22L16 10.188zm0 2.844l1.937 1.968-1.47 1.47 1.44 1.437 1.467-1.47 2.376 2.375-2.97 2.97-5.78-5.783zm15.03.125c.52 0 1.048.233 1.5.686.903.903.903 2.067 0 2.97l-.655.655-2.97-2.967.657-.657c.453-.453.95-.687 1.47-.687zm-3.53 2.75l2.968 2.967-12.093 12.094c-.66-1.268-1.7-2.307-2.968-2.968zm.093 8.686l2.375 2.375-1.5 1.5 1.44 1.44 1.5-1.5 1.905 1.905-3 3-5.72-5.72zm-13.468 5c1.2.504 2.152 1.457 2.656 2.657l-3.313.656z"/></symbol><symbol id="icon-event-2" viewBox="0 0 32 32"><path d="M9 4v1H5v22h22V5h-4V4h-2v1H11V4zM7 7h2v1h2V7h10v1h2V7h2v2H7zm0 4h18v14H7zm6 2v2h2v-2zm4 0v2h2v-2zm4 0v2h2v-2zm-5 3v4h4v-4zm-7 1v2h2v-2zm4 0v2h2v-2zm8 0v2h2v-2zM9 21v2h2v-2zm4 0v2h2v-2zm4 0v2h2v-2z"/></symbol><symbol id="icon-event-3" viewBox="0 0 32 32"><path d="M10 3c-4.406 0-8 3.594-8 8 0 2.95 1.613 5.52 4 6.906V27h22V7h-5V6h-2v1h-4.094C15.52 4.613 12.95 3 10 3zm0 2c3.324 0 6 2.676 6 6s-2.676 6-6 6-6-2.676-6-6 2.676-6 6-6zM9 7v4.563L7.28 13.28l1.44 1.44 2-2 .28-.314V7zm8.72 2H21v1h2V9h3v2h-8c0-.695-.113-1.355-.28-2zm0 4H26v12H8v-6.28c.645.167 1.305.28 2 .28 3.71 0 6.82-2.563 7.72-6zm.28 4v2h2v-2zm4 0v2h2v-2zm-12 4v2h2v-2zm4 0v2h2v-2zm4 0v2h2v-2zm4 0v2h2v-2z"/></symbol><symbol id="icon-event" viewBox="0 0 32 32"><path d="M9 4v1H5v22h22V5h-4V4h-2v1H11V4zM7 7h2v1h2V7h10v1h2V7h2v2H7zm0 4h18v14H7zm6 2v2h2v-2zm4 0v2h2v-2zm4 0v2h2v-2zM9 17v2h2v-2zm4 0v2h2v-2zm4 0v2h2v-2zm4 0v2h2v-2zM9 21v2h2v-2zm4 0v2h2v-2zm4 0v2h2v-2z"/></symbol><symbol id="icon-external-link" viewBox="0 0 32 32"><path d="M18 5v2h5.563L11.28 19.28l1.44 1.44L25 8.437V14h2V5zM5 9v18h18V14l-2 2v9H7V11h9l2-2z"/></symbol><symbol id="icon-filter-2" viewBox="0 0 32 32"><path d="M15 5c-1.293 0-2.395.844-2.813 2H4v2h8.188c.417 1.156 1.52 2 2.812 2 1.293 0 2.395-.844 2.813-2H28V7H17.812c-.417-1.156-1.52-2-2.812-2zm0 2c.563 0 1 .438 1 1 0 .563-.438 1-1 1-.563 0-1-.438-1-1 0-.563.438-1 1-1zm7 6c-1.293 0-2.395.844-2.813 2H4v2h15.188c.417 1.156 1.52 2 2.812 2 1.293 0 2.395-.844 2.813-2H28v-2h-3.188c-.417-1.156-1.52-2-2.812-2zm0 2c.563 0 1 .438 1 1 0 .563-.438 1-1 1-.563 0-1-.438-1-1 0-.563.438-1 1-1zm-11 6c-1.293 0-2.395.844-2.813 2H4v2h4.188c.417 1.156 1.52 2 2.812 2 1.293 0 2.395-.844 2.813-2H28v-2H13.812c-.417-1.156-1.52-2-2.812-2zm0 2c.563 0 1 .438 1 1 0 .563-.438 1-1 1-.563 0-1-.438-1-1 0-.563.438-1 1-1z"/></symbol><symbol id="icon-filter" viewBox="0 0 32 32"><path d="M5 4v2.344l.22.28 7.78 9.72V28l1.594-1.188 4-3L19 23.5v-7.156l7.78-9.72.22-.28V4zm2.28 2h17.44l-7.19 9h-3.06zM15 17h2v5.5L15 24z"/></symbol><symbol id="icon-flip-horizontal" viewBox="0 0 32 32"><path d="M26 3.313L4.5 15H26zM4.47 17l3.468 1.875 16.593 9 1.47.813V17zm7.874 2H24v6.344z"/></symbol><symbol id="icon-forward" viewBox="0 0 32 32"><path d="M12.97 4.28l-1.44 1.44L21.814 16 11.53 26.28l1.44 1.44 11-11 .686-.72-.687-.72z"/></symbol><symbol id="icon-gender-neutral-user" viewBox="0 0 32 32"><path d="M16 5c-3.855 0-7 3.145-7 7 0 2.41 1.23 4.55 3.094 5.813C8.527 19.343 6 22.883 6 27h2c0-4.43 3.57-8 8-8s8 3.57 8 8h2c0-4.117-2.527-7.656-6.094-9.188C21.77 16.552 23 14.41 23 12c0-3.855-3.145-7-7-7zm0 2c2.773 0 5 2.227 5 5s-2.227 5-5 5-5-2.227-5-5 2.227-5 5-5z"/></symbol><symbol id="icon-green-check-mark-2" viewBox="0 0 32 32"><path d="M5 5v22h22V5zm2 2h18v18H7zm14.28 4.28L14 18.564l-3.28-3.282-1.44 1.44 4 4 .72.686.72-.687 8-8z"/></symbol><symbol id="icon-green-check-mark" viewBox="0 0 32 32"><path d="M28.28 6.28L11 23.563l-7.28-7.28-1.44 1.437 8 8 .72.686.72-.687 18-18z"/></symbol><symbol id="icon-grid-2" viewBox="0 0 24 24"><path d="M2 2v9h9V2zm11 0v9h9V2zM4 4h5v5H4zm11 0h5v5h-5zM2 13v9h9v-9zm11 0v9h9v-9zm-9 2h5v5H4zm11 0h5v5h-5z"/></symbol><symbol id="icon-group-message" viewBox="0 0 32 32"><path d="M2 5v18h4v4h24V9h-4V5zm2 2h20v2H6v12H4zm6.094 4h15.812L18 16.75zM8 11.97l9.406 6.842.594.438.594-.438L28 11.97V25H8z"/></symbol><symbol id="icon-group-objects" viewBox="0 0 32 32"><path d="M5 5v4h1v14H5v4h4v-1h14v1h4v-4h-1V9h1V5h-4v1H9V5zm4 3h14v1h1v14h-1v1H9v-1H8V9h1zm1 2v8h4v4h8v-8h-4v-4zm2 2h4v4h-4zm6 4h2v4h-4v-2h2z"/></symbol><symbol id="icon-group" viewBox="0 0 32 32"><path d="M16 9c-2.75 0-5 2.25-5 5 0 1.516.707 2.863 1.78 3.78-1.077.56-1.995 1.396-2.655 2.407C9.223 18.88 7.707 18 6 18c-2.758 0-5 2.242-5 5h8v1h2c0-2.773 2.227-5 5-5s5 2.227 5 5h2v-1h8c0-2.758-2.242-5-5-5-1.707 0-3.223.88-4.125 2.188-.66-1.012-1.578-1.848-2.656-2.407C20.292 16.864 21 15.517 21 14c0-2.75-2.25-5-5-5zm10 9c1.656 0 3-1.344 3-3s-1.344-3-3-3-3 1.344-3 3 1.344 3 3 3zM6 18c1.656 0 3-1.344 3-3s-1.344-3-3-3-3 1.344-3 3 1.344 3 3 3zm10-7c1.668 0 3 1.332 3 3s-1.332 3-3 3-3-1.332-3-3 1.332-3 3-3z"/></symbol><symbol id="icon-hamburger-button" viewBox="0 0 32 32"><path d="M4 7v2h24V7zm0 8v2h24v-2zm0 8v2h24v-2z"/></symbol><symbol id="icon-hexagon" viewBox="0 0 32 32"><path d="M9.438 5l-.282.5-6 10-.312.5.312.5 6 10 .28.5h13.127l.28-.5 6-10 .313-.5-.312-.5-6-10-.282-.5zm1.093 2h10.94l5.374 9-5.375 9H10.53l-5.374-9z"/></symbol><symbol id="icon-horizontal-line" viewBox="0 0 32 32"><path d="M0 15v2h32v-2z"/></symbol><symbol id="icon-image-file" viewBox="0 0 32 32"><path d="M6 3v26h20V9.594l-.28-.313-6-6-.314-.28zm2 2h10v6h6v16H8zm12 1.438L22.563 9H20zM21.094 14c-.55 0-1 .45-1 1s.45 1 1 1 1-.45 1-1-.45-1-1-1zM14 15.594l-.72.687-4 4 1.44 1.44L14 18.437l2.28 2.28.72.688.72-.687L19 19.437l2.28 2.28 1.44-1.437-3-3-.72-.686-.72.687L17 18.563l-2.28-2.28z"/></symbol><symbol id="icon-image" viewBox="0 0 32 32"><path d="M2 5v22h28V5zm2 2h24v13.906l-5.28-5.312-.72-.72-4.53 4.532-5.75-5.812-.72-.72-7 7zm20 2c-1.105 0-2 .895-2 2s.895 2 2 2 2-.895 2-2-.895-2-2-2zm-13 6.72L20.188 25H4v-2.28zm11 2l6 6V25h-4.97l-4.155-4.188z"/></symbol><symbol id="icon-in-progress" viewBox="0 0 32 32"><path d="M16 3c-.46 0-.938.027-1.453.086l.22 1.984C15.21 5.023 15.612 5 16 5c6.066 0 11 4.934 11 11s-4.934 11-11 11c-.387 0-.785-.023-1.223-.074l-.222 1.988c.51.06.984.086 1.445.086 7.168 0 13-5.832 13-13S23.168 3 16 3zm-4.293.738c-.918.32-1.797.75-2.62 1.266l1.065 1.69c.696-.436 1.442-.796 2.22-1.07zm-4.902 3.07c-.66.665-1.27 1.434-1.805 2.286l1.695 1.062c.453-.726.97-1.375 1.524-1.933zm14.445 4.536l-6.375 7.277-4.25-3.4-1.25 1.56 5.75 4.6 7.625-8.724zm-17.516.37c-.324.938-.543 1.89-.648 2.837l1.984.22c.09-.793.278-1.602.555-2.395zm1.34 5.52l-1.988.223c.11.95.328 1.902.656 2.84l1.887-.664c-.278-.793-.466-1.598-.556-2.4zm1.62 4.618L5.01 22.918c.535.848 1.14 1.617 1.804 2.28l1.415-1.417c-.56-.557-1.075-1.206-1.532-1.928zm3.466 3.46L9.094 27c.824.52 1.703.94 2.625 1.266l.655-1.89c-.777-.27-1.523-.63-2.215-1.064z"/></symbol><symbol id="icon-italic" viewBox="0 0 32 32"><path d="M11.75 5l-.063.938-.187 3L11.437 10h2l-.874 12h-2l-.063.938-.188 3L10.22 27h10.03l.063-.938.187-3L20.563 22h-2l.875-12h2l.062-.938.188-3L21.78 5zm1.875 2h6l-.063 1h-2l-.062.938-1 14L16.437 24h2l-.062 1h-6l.063-1h2l.062-.938 1-14L15.563 8h-2z"/></symbol><symbol id="icon-layers" viewBox="0 0 32 32"><path d="M16 5.938l-.375.125-10 4L3.312 11l2.313.938L9.53 13.5l-3.905 1.563L3.312 16l2.313.938L9.53 18.5l-3.905 1.563L3.312 21l2.313.938 10 4 .375.125.375-.125 10-4L28.688 21l-2.313-.938L22.47 18.5l3.905-1.563L28.688 16l-2.313-.938L22.47 13.5l3.905-1.563L28.688 11l-2.313-.938-10-4zm0 2.156L23.28 11 16 13.906 8.72 11zm-3.75 6.5l3.375 1.344.375.124.375-.125 3.375-1.343L23.28 16 16 18.906 8.72 16zm0 5l3.375 1.343.375.125.375-.125 3.375-1.343L23.28 21 16 23.906 8.72 21z"/></symbol><symbol id="icon-line-in-square" viewBox="0 0 32 32"><path d="M5 5v22h22V5zm2 2h18v18H7zm4 8v2h10v-2z"/></symbol><symbol id="icon-link" viewBox="0 0 32 32"><path d="M21.75 4c-1.672 0-3.258.66-4.438 1.844l-1.468 1.468C14.66 8.496 14 10.079 14 11.75c0 .793.152 1.566.438 2.28l1.624-1.624c-.203-1.297.192-2.69 1.188-3.687l1.47-1.47C19.522 6.445 20.612 6 21.75 6c1.137 0 2.195.445 3 1.25 1.66 1.66 1.66 4.37 0 6.03l-1.47 1.47c-.803.805-1.893 1.25-3.03 1.25-.223 0-.44-.023-.656-.063l-1.625 1.626c.714.285 1.487.437 2.28.437 1.672 0 3.258-.66 4.438-1.844l1.468-1.468C27.34 13.504 28 11.921 28 10.25c0-1.672-.66-3.223-1.844-4.406C24.976 4.66 23.422 4 21.75 4zm-2.47 7.28l-8 8 1.44 1.44 8-8zM11.75 14c-1.672 0-3.258.66-4.438 1.844l-1.468 1.47C4.66 18.494 4 20.076 4 21.748c0 1.672.66 3.223 1.844 4.406C7.024 27.34 8.578 28 10.25 28c1.672 0 3.258-.66 4.438-1.844l1.468-1.468C17.34 23.503 18 21.922 18 20.25c0-.793-.152-1.566-.438-2.28l-1.625 1.624c.204 1.297-.19 2.69-1.187 3.687l-1.47 1.47c-.803.805-1.893 1.25-3.03 1.25-1.137 0-2.195-.445-3-1.25-1.66-1.66-1.66-4.37 0-6.03l1.47-1.47c.803-.805 1.893-1.25 3.03-1.25.223 0 .44.023.656.063l1.625-1.625c-.714-.286-1.487-.438-2.28-.438z"/></symbol><symbol id="icon-list" viewBox="0 0 32 32"><path d="M4 5v6h6V5zm2 2h2v2H6zm6 0v2h15V7zm-8 6v6h6v-6zm2 2h2v2H6zm6 0v2h15v-2zm-8 6v6h6v-6zm2 2h2v2H6zm6 0v2h15v-2z"/></symbol><symbol id="icon-lock-outline" viewBox="0 0 32 32"><path d="M16 3c-3.035 0-5.586 1.965-6.625 4.625l1.844.75C11.976 6.435 13.835 5 16 5c2.754 0 5 2.246 5 5v3H6v16h20V13h-3v-3c0-3.844-3.156-7-7-7zM8 15h16v12H8z"/></symbol><symbol id="icon-lock" viewBox="0 0 32 32"><path d="M16 3c-3.844 0-7 3.156-7 7v3H6v16h20V13h-3v-3c0-3.844-3.156-7-7-7zm0 2c2.754 0 5 2.246 5 5v3H11v-3c0-2.754 2.246-5 5-5zM8 15h16v12H8z"/></symbol><symbol id="icon-lowercase" viewBox="0 0 32 32"><path d="M15 6v2h6v18h2V8h6V6zM3 12v2h4v12h2V14h4v-2z"/></symbol><symbol id="icon-magnifying-glass-with-minus" viewBox="0 0 32 32"><path d="M19 3C13.488 3 9 7.488 9 13c0 2.395.84 4.59 2.25 6.313L3.28 27.28l1.44 1.44 7.968-7.97C14.41 22.16 16.605 23 19 23c5.512 0 10-4.488 10-10S24.512 3 19 3zm0 2c4.43 0 8 3.57 8 8s-3.57 8-8 8-8-3.57-8-8 3.57-8 8-8zm-4 7v2h8v-2z"/></symbol><symbol id="icon-magnifying-glass-with-plus" viewBox="0 0 32 32"><path d="M19 3C13.488 3 9 7.488 9 13c0 2.395.84 4.59 2.25 6.313L3.28 27.28l1.44 1.44 7.968-7.97C14.41 22.16 16.605 23 19 23c5.512 0 10-4.488 10-10S24.512 3 19 3zm0 2c4.43 0 8 3.57 8 8s-3.57 8-8 8-8-3.57-8-8 3.57-8 8-8zm-1 4v3h-3v2h3v3h2v-3h3v-2h-3V9z"/></symbol><symbol id="icon-minus" viewBox="0 0 32 32"><path d="M16 3C8.832 3 3 8.832 3 16s5.832 13 13 13 13-5.832 13-13S23.168 3 16 3zm0 2c6.086 0 11 4.914 11 11s-4.914 11-11 11S5 22.086 5 16 9.914 5 16 5zm-6 10v2h12v-2z"/></symbol><symbol id="icon-more-info" viewBox="0 0 32 32"><path d="M16 3C8.832 3 3 8.832 3 16s5.832 13 13 13 13-5.832 13-13S23.168 3 16 3zm0 2c6.086 0 11 4.914 11 11s-4.914 11-11 11S5 22.086 5 16 9.914 5 16 5zm-1 5v2h2v-2zm0 4v8h2v-8z"/></symbol><symbol id="icon-more" viewBox="0 0 32 32"><path d="M6 14c-1.105 0-2 .895-2 2s.895 2 2 2 2-.895 2-2-.895-2-2-2zm10 0c-1.105 0-2 .895-2 2s.895 2 2 2 2-.895 2-2-.895-2-2-2zm10 0c-1.105 0-2 .895-2 2s.895 2 2 2 2-.895 2-2-.895-2-2-2z"/></symbol><symbol id="icon-notification" viewBox="0 0 32 32"><path d="M16 3c-1.105 0-2 .895-2 2 0 .086.02.168.03.25C10.575 6.133 8 9.273 8 13v9c0 .566-.434 1-1 1H6v2h7.188c-.114.316-.188.648-.188 1 0 1.645 1.355 3 3 3s3-1.355 3-3c0-.352-.074-.684-.188-1H26v-2h-1c-.566 0-1-.434-1-1v-8.72c0-3.757-2.512-7.108-6.03-8.03.01-.082.03-.164.03-.25 0-1.105-.895-2-2-2zm-.438 4c.145-.012.29 0 .438 0h.188C19.453 7.098 22 9.96 22 13.28V22c0 .352.074.684.188 1H9.813c.113-.316.187-.648.187-1v-9c0-3.176 2.445-5.773 5.563-6zM16 25c.563 0 1 .438 1 1 0 .563-.438 1-1 1-.563 0-1-.438-1-1 0-.563.438-1 1-1z"/></symbol><symbol id="icon-opacity" viewBox="0 0 32 32"><path d="M6 6v4h4V6zm4 4v4h4v-4zm4 0h4V6h-4zm4 0v4h4v-4zm4 0h4V6h-4zm0 4v4h4v-4zm0 4h-4v4h4zm0 4v4h4v-4zm-4 0h-4v4h4zm-4 0v-4h-4v4zm-4 0H6v4h4zm0-4v-4H6v4zm4 0h4v-4h-4z"/></symbol><symbol id="icon-oval" viewBox="0 0 32 32"><path d="M16 6c-3.516 0-6.727 1.07-9.094 2.844C4.54 10.617 3 13.156 3 16c0 2.844 1.54 5.383 3.906 7.156C9.273 24.93 12.484 26 16 26c3.516 0 6.727-1.07 9.094-2.844C27.46 21.383 29 18.844 29 16c0-2.844-1.54-5.383-3.906-7.156C22.727 7.07 19.516 6 16 6zm0 2c3.11 0 5.898.957 7.875 2.438C25.852 11.918 27 13.874 27 16c0 2.125-1.148 4.082-3.125 5.563C21.898 23.043 19.11 24 16 24c-3.11 0-5.898-.957-7.875-2.438C6.148 20.082 5 18.125 5 16c0-2.125 1.148-4.082 3.125-5.563C10.102 8.957 12.89 8 16 8z"/></symbol><symbol id="icon-page" viewBox="0 0 32 32"><path d="M6 3v26h20V9.594l-.28-.313-6-6-.314-.28zm2 2h10v6h6v16H8zm12 1.438L22.563 9H20z"/></symbol><symbol id="icon-paint-brush" viewBox="0 0 32 32"><path d="M19 2.03l-.72.69-5.56 5.592L12 9l-1 1-2.28 2.313-.564.562.438.688s.61.937 1.094 1.968c.242.517.46 1.064.53 1.44.036.186.04.3.032.343-.11.085-1.426 1.128-3 2.406-1.64 1.327-3.383 2.725-4.094 3.436-1.554 1.555-1.554 4.102 0 5.657 1.547 1.546 4.07 1.535 5.625 0h.033c.714-.715 2.148-2.43 3.468-4.063 1.29-1.594 2.376-2.95 2.44-3.03-.005.003.042-.064.405 0 .363.06.88.25 1.375.5.992.495 1.906 1.155 1.906 1.155l.688.5.593-.594L22 21l1-1 .688-.72 5.593-5.56.69-.72-.69-.72-9.56-9.56zm1.313 5.22c.19.016.34.09.468.22.513.514-.233 2.518-.593 3.374-.36.86-.246 1.53.22 2 .792.8 2.89-1.082 3.78-.188.887.895-.726 2.797-.156 3.375l.032.032-1.78 1.782-8.126-8.125 1.375-1.376c.02.023.04.04.064.062.68.684 2.074.03 2.656-.344.688-.44 1.492-.86 2.063-.812zm-7.594 3.906l8.124 8.125-.282.282-1.718 1.75c-.387-.265-.657-.484-1.438-.875-.597-.296-1.246-.57-1.937-.687-.693-.117-1.568-.09-2.19.53l-.03.064-.03.03s-1.18 1.497-2.5 3.126c-1.322 1.63-2.853 3.445-3.314 3.906-.79.79-2.023.79-2.812 0-.79-.79-.79-2.023 0-2.812.46-.46 2.277-1.992 3.906-3.313 1.63-1.32 3.125-2.5 3.125-2.5l.03-.03.064-.03c.632-.63.592-1.466.467-2.126-.124-.66-.406-1.305-.687-1.907-.38-.812-.602-1.11-.844-1.5l1.78-1.75zm-6.47 13.5c-.605 0-1.094.49-1.094 1.094 0 .605.49 1.094 1.094 1.094.605 0 1.094-.49 1.094-1.094 0-.605-.49-1.094-1.094-1.094z"/></symbol><symbol id="icon-paint-bucket-2" viewBox="0 0 32 32"><path d="M16 4c-4.406 0-8 3.594-8 8H6v13c0 1.645 1.355 3 3 3h14c1.645 0 3-1.355 3-3V12h-2c0-4.406-3.594-8-8-8zm0 2c3.324 0 6 2.676 6 6H10c0-3.324 2.676-6 6-6zm-8 8h4c.5 0 1 .492 1 1v1c0 .55.45 1 1 1s1-.45 1-1v-1c0-.508.508-1 1-1h1c1 0 1 1 1 1 0 1.004-1 3.016-1 4 0 1.105.895 2 2 2s2-.895 2-2c0-1.004-1-2.996-1-4 0 0 .02-1 1-1h3v11c0 .563-.438 1-1 1H9c-.563 0-1-.438-1-1z"/></symbol><symbol id="icon-paint-bucket" viewBox="0 0 32 32"><path d="M11.313 3.28L9.905 4.72l1.78 1.78-6.905 6.906c-1.182 1.184-1.182 3.13 0 4.313l.064.06 6.343 6.314c1.184 1.183 3.13 1.183 4.313 0l7.594-7.594.718-.688-9.718-9.718-.78-.813-.22-.186zm1.812 4.658L21 15.813l-6.906 6.874c-.418.418-1.082.418-1.5 0L6.22 16.282c-.42-.417-.42-1.05 0-1.468zM25 19.25l-.813 1.188s-.54.753-1.062 1.656c-.262.453-.508.926-.72 1.406-.21.48-.405.922-.405 1.5 0 1.645 1.355 3 3 3s3-1.355 3-3c0-.578-.195-1.02-.406-1.5-.21-.48-.457-.953-.72-1.406-.522-.903-1.06-1.657-1.06-1.657zm0 3.625c.066.11.06.102.125.22.238.41.492.846.656 1.218.165.37.22.714.22.687 0 .555-.445 1-1 1-.555 0-1-.445-1-1 0 .027.055-.316.22-.688.163-.37.417-.808.655-1.218.066-.117.06-.11.125-.22z"/></symbol><symbol id="icon-password" viewBox="0 0 32 32"><path d="M16 3c-3.855 0-7 3.145-7 7v3H6v16h20V13h-3v-3c0-3.855-3.145-7-7-7zm0 2c2.773 0 5 2.227 5 5v3H11v-3c0-2.773 2.227-5 5-5zM8 15h16v12H8zm4 5c-.55 0-1 .45-1 1s.45 1 1 1 1-.45 1-1-.45-1-1-1zm4 0c-.55 0-1 .45-1 1s.45 1 1 1 1-.45 1-1-.45-1-1-1zm4 0c-.55 0-1 .45-1 1s.45 1 1 1 1-.45 1-1-.45-1-1-1z"/></symbol><symbol id="icon-paste" viewBox="0 0 32 32"><path d="M15 3c-1.258 0-2.152.89-2.594 2H5v23h8v2h14V14h-2V5h-7.406C17.152 3.89 16.258 3 15 3zm0 2c.555 0 1 .445 1 1v1h3v2h-8V7h3V6c0-.555.445-1 1-1zM7 7h2v4h12V7h2v7H13v12H7zm8 9h10v12H15z"/></symbol><symbol id="icon-payment-history" viewBox="0 0 32 32"><path d="M2 8v16h19.53c-.522-.582-.91-1.266-1.17-2H5.913c.055-.16.086-.328.086-.5 0-.828-.672-1.5-1.5-1.5-.172 0-.34.03-.5.09v-8.18c.16.06.328.09.5.09.828 0 1.5-.672 1.5-1.5 0-.172-.03-.34-.086-.5H24.09c-.06.16-.09.328-.09.5 0 .828.672 1.5 1.5 1.5.172 0 .34-.03.5-.09V15h2V8zm13 4c-2.21 0-4 1.79-4 4v1h.203c.45 1.71 1.942 3 3.797 3 1.215 0 2.273-.523 3-1.352V15h.863c-.433-1.742-1.968-3-3.863-3zm0 2c1.14 0 2 .86 2 2 0 1.14-.86 2-2 2-1.19 0-2-.81-2-2s.81-2 2-2zm-7 .5c-.828 0-1.5.672-1.5 1.5s.672 1.5 1.5 1.5 1.5-.672 1.5-1.5-.672-1.5-1.5-1.5zM20 16v2h1v2c0 1.602.8 3.102 2 4-1.2.898-2 2.398-2 4v2h-1v2h12v-2h-1v-2c0-1.602-.8-3.102-2-4 1.2-.898 2-2.398 2-4v-2h1v-2zm3 2h6v2c0 1.7-1.3 3-3 3s-3-1.3-3-3zm1 2s0 2 2 2 2-2 2-2zm2 5c1.7 0 3 1.3 3 3v2h-1c0-1.102-.898-2-2-2-1.102 0-2 .898-2 2h-1v-2c0-1.7 1.3-3 3-3z"/></symbol><symbol id="icon-pentagon" viewBox="0 0 32 32"><path d="M16 3.875l-.594.406-11 8-.593.44.25.686L8.25 26.312l.22.688h15.06l.22-.688 4.188-12.906.25-.687-.594-.44-11-8zm0 2.47l9.844 7.155L22.062 25H9.938l-3.78-11.5z"/></symbol><symbol id="icon-plus-math" viewBox="0 0 32 32"><path d="M15 5v10H5v2h10v10h2V17h10v-2H17V5z"/></symbol><symbol id="icon-plus-sign" viewBox="0 0 32 32"><path d="M5 5v22h22V5zm2 2h18v18H7zm8 4v4h-4v2h4v4h2v-4h4v-2h-4v-4z"/></symbol><symbol id="icon-plus" viewBox="0 0 32 32"><path d="M16 3C8.832 3 3 8.832 3 16s5.832 13 13 13 13-5.832 13-13S23.168 3 16 3zm0 2c6.086 0 11 4.914 11 11s-4.914 11-11 11S5 22.086 5 16 9.914 5 16 5zm-1 5v5h-5v2h5v5h2v-5h5v-2h-5v-5z"/></symbol><symbol id="icon-price-label" viewBox="0 0 32 32"><path d="M16 5l-.313.28L4.28 16.813l-.686.688.687.72 9.5 9.5.72.686.688-.687 11.53-11.407L27 16V5zm.844 2H25v8.156L14.5 25.594 6.406 17.5zM22 9c-.55 0-1 .45-1 1s.45 1 1 1 1-.45 1-1-.45-1-1-1z"/></symbol><symbol id="icon-pricing" viewBox="0 0 32 32"><path d="M16 5l-.313.28-11.874 12-.72.72L14 28.906l.72-.718 12-11.875L27 16V5zm.844 2H25v8.156L14 26.062 5.937 18zM22 9c-.55 0-1 .45-1 1s.45 1 1 1 1-.45 1-1-.45-1-1-1zm-2.72 2.28l-.968 1c-.347-.147-.726-.25-1.093-.25-.708-.003-1.404.247-1.94.783-1.07 1.07-1.07 2.835 0 3.906.314.31.302.792 0 1.093-.3.3-.75.28-1.06-.032-.314-.31-.333-.76-.033-1.06l-1.406-1.407c-.82.82-1 2.05-.56 3.062l-.94.938 1.408 1.406.937-.94c1.012.44 2.242.26 3.063-.56 1.07-1.072 1.07-2.837 0-3.907-.313-.313-.3-.793 0-1.094.3-.302.75-.283 1.062.03.313.313.332.762.03 1.063l1.407 1.437c.82-.82 1-2.05.563-3.063l.97-.968z"/></symbol><symbol id="icon-product-code" viewBox="0 0 32 32"><path d="M2 7v18h2V7zm4 0v18h6V7zm8 0v18h2V7zm4 0v18h4V7zm6 0v18h2V7zm4 0v18h2V7z"/></symbol><symbol id="icon-product" viewBox="0 0 32 32"><path d="M8.5 5L5 9.656V27h22V9.656L23.5 5zm1 2h13L24 9H8zM7 11h18v14H7zm6 2c-.55 0-1 .45-1 1s.45 1 1 1h6c.555 0 1-.45 1-1s-.445-1-1-1zm6 5l-1 1v2h2v-2zm4 0l-1 1v2h2v-2zm-5 4v2h6v-2z"/></symbol><symbol id="icon-purchase-order" viewBox="0 0 32 32"><path d="M9 5v14h2V7h14v16c0 1.117-.883 2-2 2s-2-.883-2-2v-3H5v3c0 2.2 1.8 4 4 4h14c2.2 0 4-1.8 4-4V5zm4 6v2h2v-2zm4 0v2h6v-2zm-4 4v2h2v-2zm4 0v2h6v-2zM7 22h12v1c0 .734.215 1.406.563 2H9c-1.117 0-2-.883-2-2z"/></symbol><symbol id="icon-push-cart" viewBox="0 0 32 32"><path d="M5 7c-.55 0-1 .45-1 1s.45 1 1 1h2.22l2.624 10.5c.222.89 1.02 1.5 1.937 1.5h11.47c.902 0 1.668-.598 1.906-1.47L27.75 10H11l.5 2h13.656l-1.906 7H11.78L9.157 8.5C8.934 7.61 8.136 7 7.22 7zm17 14c-1.645 0-3 1.355-3 3s1.355 3 3 3 3-1.355 3-3-1.355-3-3-3zm-9 0c-1.645 0-3 1.355-3 3s1.355 3 3 3 3-1.355 3-3-1.355-3-3-3zm0 2c.563 0 1 .438 1 1 0 .563-.438 1-1 1-.563 0-1-.438-1-1 0-.563.438-1 1-1zm9 0c.563 0 1 .438 1 1 0 .563-.438 1-1 1-.563 0-1-.438-1-1 0-.563.438-1 1-1z"/></symbol><symbol id="icon-rectangular" viewBox="0 0 32 32"><path d="M3 6v20h26V6zm2 2h22v16H5z"/></symbol><symbol id="icon-resize-corners" viewBox="0 0 32 32"><path d="M4 4v9h2V7.437L14.563 16 6 24.563V19H4v9h9v-2H7.437L16 17.437 24.563 26H19v2h9v-9h-2v5.563L17.437 16 26 7.437V13h2V4h-9v2h5.563L16 14.563 7.437 6H13V4z"/></symbol><symbol id="icon-resize" viewBox="0 0 32 32"><path d="M5 5v2h2V5zm4 0v2h2V5zm4 0v2h2V5zm4 0v2h2V5zm4 0v2h2V5zm4 0v2h2V5zM5 9v2h2V9zm20 0v2h2V9zm-11 2v2h3.563l-4 4H5v10h10v-8.563l4-4V18h2v-7zm-9 2v2h2v-2zm20 0v2h2v-2zm0 4v2h2v-2zM7 19h6v6H7zm18 2v2h2v-2zm-8 4v2h2v-2zm4 0v2h2v-2zm4 0v2h2v-2z"/></symbol><symbol id="icon-rotate-left" viewBox="0 0 32 32"><path d="M15 3v2h1V3zm-2.156.438L12 3.655l-.03.03-.033.002-.843.312h-.03l-.033.03-.092.032.843 1.813h.033l.062-.03.688-.25.062-.032.78-.22zM20 4v8h2V6.78c3.03 1.982 5 5.282 5 9.22 0 6.055-4.945 11-11 11S5 22.055 5 16v-1H3v1c0 7.145 5.855 13 13 13s13-5.855 13-13c0-4.06-1.797-7.613-4.656-10H28V4zM9.156 5l-.53.344-.032.03h-.03l-.69.532-.03.032h-.032l-.28.25 1.312 1.5.22-.188.06-.03.563-.44L9.75 7l.47-.313zM6.094 7.594l-.22.28-.06.064-.533.687v.03l-.03.033-.344.53 1.688 1.095.28-.47.064-.062.437-.592.03-.032.22-.25zM3.97 11l-.033.125-.03.03v.033L3.593 12v.03l-.03.064-.22.844 1.906.53.22-.78.03-.063.25-.688.03-.062v-.03z"/></symbol><symbol id="icon-rotate-right" viewBox="0 0 32 32"><path d="M16 3v2h1V3zm3.156.438l-.562 1.906.78.218.064.032.687.25.063.03h.03l.845-1.81-.094-.033-.032-.03h-.032l-.843-.313h-.032l-.03-.03zM4 4v2h3.656C4.796 8.387 3 11.94 3 16c0 7.145 5.855 13 13 13s13-5.855 13-13v-1h-2v1c0 6.055-4.945 11-11 11S5 22.055 5 16c0-3.938 1.97-7.238 5-9.22V12h2V4zm18.844 1L21.78 6.688l.47.312.063.03.562.44.063.03.218.188 1.313-1.5-.282-.25h-.032l-.03-.032-.69-.53h-.03l-.03-.032zm3.062 2.594l-1.53 1.312.218.25.03.03.44.595.06.064.282.47 1.688-1.095-.344-.533-.03-.03v-.032l-.532-.688-.063-.062zM28.03 11l-1.81.844v.03l.03.063.25.688.03.063.22.78 1.906-.53-.218-.844-.032-.063V12l-.312-.813v-.03l-.032-.032z"/></symbol><symbol id="icon-rotate" viewBox="0 0 32 32"><path d="M16 3C8.832 3 3 8.832 3 16s5.832 13 13 13 13-5.832 13-13c0-4.02-1.832-7.613-4.703-10H28V4h-8v8h2V6.785c3.008 1.96 5 5.348 5 9.215 0 6.086-4.914 11-11 11S5 22.086 5 16 9.914 5 16 5z"/></symbol><symbol id="icon-rounded-rectangle-stroked" viewBox="0 0 32 32"><path d="M8 6c-2.746 0-5 2.254-5 5v10c0 2.746 2.254 5 5 5h16c2.746 0 5-2.254 5-5V11c0-2.746-2.254-5-5-5zm0 2h16c1.656 0 3 1.344 3 3v10c0 1.656-1.344 3-3 3H8c-1.656 0-3-1.344-3-3V11c0-1.656 1.344-3 3-3z"/></symbol><symbol id="icon-sand-clock" viewBox="0 0 32 32"><path d="M7 4v2h2v4c0 2.543 1.367 4.773 3.406 6C10.366 17.227 9 19.457 9 22v4H7v2h18v-2h-2v-4c0-2.543-1.367-4.773-3.406-6C21.634 14.773 23 12.543 23 10V6h2V4zm4 2h10v4c0 2.773-2.227 5-5 5s-5-2.227-5-5zm5 11c2.773 0 5 2.227 5 5v4H11v-4c0-2.773 2.227-5 5-5z"/></symbol><symbol id="icon-save-as" viewBox="0 0 32 32"><path d="M5 5v22h14.97l-2-2H11v-7h3.156l-.406-1.875V16H9v9H7V7h3v6h12V7.406l3 3v7.563l2 2V9.593L22.406 5zm7 2h4v2h2V7h2v4h-8zm3.72 8.72l.31 1.467.69 3.5.06.313.22.22 9.906 9.874c1.153 1.152 3.035 1.152 4.188 0 1.152-1.153 1.152-3.035 0-4.188L21.22 17l-.22-.22-.313-.06-3.5-.69zm2.56 2.56l1.72.345 9.688 9.688c.445.445.445.93 0 1.375-.446.445-.93.445-1.375 0L18.624 20z"/></symbol><symbol id="icon-search" viewBox="0 0 32 32"><path d="M19 3C13.488 3 9 7.488 9 13c0 2.395.84 4.59 2.25 6.313L3.28 27.28l1.44 1.44 7.968-7.97C14.41 22.16 16.605 23 19 23c5.512 0 10-4.488 10-10S24.512 3 19 3zm0 2c4.43 0 8 3.57 8 8s-3.57 8-8 8-8-3.57-8-8 3.57-8 8-8z"/></symbol><symbol id="icon-security-lock" viewBox="0 0 32 32"><path d="M16 4c-2.25 0-3.758.883-5.113 1.62C9.527 6.36 8.28 7 6 7H5v1c0 7.72 2.605 12.738 5.246 15.777 2.64 3.04 5.38 4.15 5.38 4.15l.374.15.367-.147s2.746-1.098 5.387-4.133C24.394 20.767 27 15.747 27 8V7h-1c-2.27 0-3.516-.64-4.875-1.38C19.762 4.884 18.25 4 16 4zm0 2c1.75 0 2.766.617 4.172 1.38 1.18.64 2.738 1.245 4.762 1.456-.192 6.77-2.43 11.06-4.688 13.648-2.05 2.356-3.766 3.172-4.246 3.387-.477-.218-2.195-1.046-4.246-3.405-2.258-2.598-4.496-6.887-4.684-13.63 2.028-.21 3.59-.815 4.77-1.456C13.242 6.616 14.25 6 16 6zm0 4c-1.656 0-3 1.344-3 3 0 1.172.688 2.238 1.754 2.723L14 21h4l-.754-5.277C18.313 15.238 19 14.173 19 13c0-1.656-1.344-3-3-3z"/></symbol><symbol id="icon-send-backward" viewBox="0 0 32 32"><path d="M5 5v14h8v8h14V13h-8V5zm2 2h10v6h-4v4H7z"/></symbol><symbol id="icon-send-to-back" viewBox="0 0 32 32"><path d="M3 3v12h7v7h7v7h12V17h-7v-7h-7V3zm12 9h5v5h-3v3h-5v-5h3z"/></symbol><symbol id="icon-sent" viewBox="0 0 32 32"><path d="M3.594 5.344L4.03 7.22 5.97 16l-1.94 8.78-.436 1.876 1.78-.718 22-9L29.657 16l-2.28-.938-22-9zm2.78 3.312L21.907 15H7.78zM7.782 17h14.126l-15.53 6.344z"/></symbol><symbol id="icon-settings" viewBox="0 0 32 32"><path d="M13.188 3l-.157.813-.592 2.968c-.954.376-1.813.904-2.594 1.532l-2.906-1-.782-.25-.406.72-2 3.437-.406.717.594.532 2.25 1.967C6.104 14.95 6 15.462 6 16c0 .54.105 1.05.188 1.563l-2.25 1.968-.594.532.406.72 2 3.437.406.718.782-.25 2.906-1c.78.628 1.64 1.156 2.594 1.53l.593 2.97.158.812h5.624l.157-.813.593-2.968c.953-.376 1.812-.904 2.593-1.532l2.907 1 .78.25.407-.72 2-3.437.406-.718-.593-.53-2.25-1.97c.082-.51.187-1.023.187-1.562 0-.54-.105-1.05-.188-1.563l2.25-1.968.594-.533-.406-.718-2-3.44-.406-.718-.782.25-2.906 1c-.78-.628-1.64-1.156-2.593-1.53l-.594-2.97L18.812 3zm1.624 2h2.376l.5 2.594.125.593.562.188c1.137.355 2.168.957 3.03 1.75l.44.406.56-.186 2.532-.875 1.188 2.03-2 1.78-.47.376.157.594c.13.57.188 1.152.188 1.75 0 .598-.06 1.18-.188 1.75l-.125.594.438.375 2 1.78-1.188 2.03-2.53-.874-.563-.187-.438.405c-.863.793-1.894 1.395-3.03 1.75l-.564.188-.125.593-.5 2.594h-2.375l-.5-2.594-.124-.593-.563-.188c-1.137-.355-2.168-.957-3.03-1.75l-.44-.406-.56.186-2.533.875-1.187-2.03 2-1.78.47-.376-.158-.594C8.06 17.18 8 16.598 8 16c0-.598.06-1.18.188-1.75l.156-.594-.47-.375-2-1.78 1.19-2.03 2.53.874.562.187.438-.405c.863-.793 1.894-1.395 3.03-1.75l.563-.188.126-.593zM16 11c-2.75 0-5 2.25-5 5s2.25 5 5 5 5-2.25 5-5-2.25-5-5-5zm0 2c1.668 0 3 1.332 3 3s-1.332 3-3 3-3-1.332-3-3 1.332-3 3-3z"/></symbol><symbol id="icon-shipping-truck" viewBox="0 0 32 32"><path d="M1 4v21h3.156c.446 1.72 1.992 3 3.844 3 1.852 0 3.398-1.28 3.844-3h8.312c.446 1.72 1.992 3 3.844 3 1.852 0 3.398-1.28 3.844-3H31V14.594l-.28-.313-6-6-.314-.28H19V4zm2 2h14v17h-5.156c-.446-1.72-1.992-3-3.844-3-1.852 0-3.398 1.28-3.844 3H3zm16 4h4.563L29 15.438V23h-1.156c-.446-1.72-1.992-3-3.844-3-1.852 0-3.398 1.28-3.844 3H19zM8 22c1.117 0 2 .883 2 2s-.883 2-2 2-2-.883-2-2 .883-2 2-2zm16 0c1.117 0 2 .883 2 2s-.883 2-2 2-2-.883-2-2 .883-2 2-2z"/></symbol><symbol id="icon-shipping" viewBox="0 0 32 32"><path d="M4 5v6h1v16h22V11h1V5zm2 2h20v2H6zm1 4h18v14H7zm5.813 2c-.55.05-.958.543-.907 1.094.05.55.543.957 1.094.906h6c.36.004.695-.184.88-.496.18-.313.18-.695 0-1.008-.185-.312-.52-.5-.88-.496H12.812z"/></symbol><symbol id="icon-sign-out" viewBox="0 0 32 32"><path d="M16 4C9.383 4 4 9.383 4 16s5.383 12 12 12c4.05 0 7.64-2.012 9.813-5.094l-1.625-1.156C22.378 24.32 19.39 26 16 26c-5.535 0-10-4.465-10-10S10.465 6 16 6c3.39 0 6.375 1.68 8.188 4.25l1.625-1.156C23.64 6.012 20.05 4 16 4zm7.344 7.28l-1.438 1.44L24.188 15H12v2h12.188l-2.282 2.28 1.438 1.44 4-4 .687-.72-.686-.72z"/></symbol><symbol id="icon-step-back" viewBox="0 0 32 32"><path d="M19.03 4.28l-11 11-.686.72.687.72 11 11 1.44-1.44L10.187 16l10.28-10.28z"/></symbol><symbol id="icon-strikethrough" viewBox="0 0 32 32"><path d="M7 6v2h8v8h-5v2h5v8h2v-8h5v-2h-5V8h8V6z"/></symbol><symbol id="icon-subtract" viewBox="0 0 32 32"><path d="M5 15v2h22v-2z"/></symbol><symbol id="icon-tasks" viewBox="0 0 32 32"><path d="M5 5v6h22V5zm6 2h14v2H11zm-6 6v6h22v-6zm16 2h4v2h-4zM5 21v6h22v-6zm11 2h9v2h-9z"/></symbol><symbol id="icon-template" viewBox="0 0 32 32"><path d="M5 5v22h22V5zm2 2h18v18H7zm2 2v5h14V9zm2 2h10v1H11zm-2 5v7h6v-7zm8 0v7h6v-7zm-6 2h2v3h-2zm8 0h2v3h-2z"/></symbol><symbol id="icon-text-align-left" viewBox="0 0 32 32"><path d="M3 7v2h26V7zm0 4v2h18v-2zm0 4v2h26v-2zm0 4v2h18v-2zm0 4v2h26v-2z"/></symbol><symbol id="icon-text-color" viewBox="0 0 32 32"><path d="M15 4L9 21h2l1.78-5h6.44L21 21h2L17 4zm1 2.844L18.53 14h-5.06zM6 23v5h20v-5zm2 2h16v1H8z"/></symbol><symbol id="icon-text-cursor" viewBox="0 0 32 32"><path d="M10 5v2h2c1.668 0 3 1.332 3 3v4h-3v2h3v6c0 1.668-1.332 3-3 3h-2v2h2c1.633 0 3.086-.813 4-2.03.914 1.218 2.367 2.03 4 2.03h2v-2h-2c-1.668 0-3-1.332-3-3v-6h3v-2h-3v-4c0-1.668 1.332-3 3-3h2V5h-2c-1.633 0-3.086.813-4 2.03C15.086 5.813 13.633 5 12 5z"/></symbol><symbol id="icon-text-height" viewBox="0 0 32 32"><path d="M4 6v2h7v18h2V8h7V6zm21 .625L21.5 11H24v10h-2.5l3.5 4.375L28.5 21H26V11h2.5z"/></symbol><symbol id="icon-text-width" viewBox="0 0 32 32"><path d="M8 6v2h7v14h2V8h7V6zm2 15.5L5.625 25 10 28.5V26h12v2.5l4.375-3.5L22 21.5V24H10z"/></symbol><symbol id="icon-three-dots-symbol" viewBox="0 0 32 32"><path d="M16 6c-1.105 0-2 .895-2 2s.895 2 2 2 2-.895 2-2-.895-2-2-2zm0 8c-1.105 0-2 .895-2 2s.895 2 2 2 2-.895 2-2-.895-2-2-2zm0 8c-1.105 0-2 .895-2 2s.895 2 2 2 2-.895 2-2-.895-2-2-2z"/></symbol><symbol id="icon-thumbs-up-hand" viewBox="0 0 32 32"><path d="M14.375 4l-4 8H4v16h18.844c1.41 0 2.64-.996 2.937-2.375l2.157-10C28.332 13.777 26.887 12 25 12h-7.78c.073-.625.09-1.254.56-2.688.306-.925.22-1.777.22-2.312 0-.746-.3-1.434-.813-2-.51-.566-1.28-1-2.187-1zM15.5 6.25c.063.047.164.03.22.094.186.207.28.492.28.656 0 .648.02 1.254-.125 1.688-.746 2.26-.875 4.25-.875 4.25L14.937 14H25c.66 0 1.105.574.97 1.22l-2.126 10c-.102.468-.524.78-1 .78H12V13.25zM6 14h4v12H6zm2 9c-.55 0-1 .45-1 1s.45 1 1 1 1-.45 1-1-.45-1-1-1z"/></symbol><symbol id="icon-triangle" viewBox="0 0 32 32"><path d="M16 4.906l-.875 1.5L4.72 24.5 3.874 26h24.25l-.844-1.5L16.876 6.406zm0 4.032L24.656 24H7.344z"/></symbol><symbol id="icon-type" viewBox="0 0 32 32"><path d="M7 6v2h8v18h2V8h8V6z"/></symbol><symbol id="icon-typography" viewBox="0 0 32 32"><path d="M15 6L8 26h2l2.094-6h7.812L22 26h2L17 6zm1 2.844L19.188 18h-6.375z"/></symbol><symbol id="icon-underline" viewBox="0 0 32 32"><path d="M8 4v12c0 4.43 3.57 8 8 8s8-3.57 8-8V4h-2v12c0 3.37-2.63 6-6 6s-6-2.63-6-6V4zM6 26v2h20v-2z"/></symbol><symbol id="icon-uppercase" viewBox="0 0 32 32"><path d="M1 6v2h6v18h2V8h6V6zm16 0v2h6v18h2V8h6V6z"/></symbol></defs></svg>