<svg xmlns="http://www.w3.org/2000/svg"><defs><symbol id="icon-about" viewBox="0 0 24 24"><path d="M20 3H4c-1.1 0-1.99.9-1.99 2L2 23l4-4h14c1.1 0 2-.9 2-2V5c0-1.1-.9-2-2-2zm-9 4h2v2h-2V7zm0 4h2v4h-2v-4z"/></symbol><symbol id="icon-admin-settings-male" viewBox="0 0 24 24"><path d="M12 3a4 4 0 0 0-4 4 4 4 0 0 0 4 4 4 4 0 0 0 4-4 4 4 0 0 0-4-4zm0 11c-3.14 0-9 1.545-9 4.5V21h9.295c-.097-.324-.172-.658-.22-1h.005c-.047-.327-.08-.66-.08-1 0-1.077.252-2.093.688-3.004.323-.68.748-1.303 1.265-1.84C13.245 14.052 12.577 14 12 14zm6.064 0c-.13 0-.236.097-.252.225l-.117 1.01c-.484.17-.92.424-1.3.753l-.938-.406c-.118-.05-.254-.005-.318.107l-.94 1.62c-.063.113-.033.255.07.33l.806.598c-.047.248-.076.502-.076.762s.028.513.076.76l-.805.6c-.102.076-.132.218-.067.33l.936 1.62c.063.113.2.157.32.106l.935-.404c.38.328.816.584 1.3.752l.117 1.01c.014.13.123.226.252.226h1.872c.13 0 .236-.097.252-.225l.117-1.01c.484-.17.92-.424 1.3-.753l.938.406c.118.05.254.004.318-.107l.94-1.62c.063-.113.033-.255-.07-.33l-.806-.6c.048-.247.076-.5.076-.76s-.028-.513-.076-.76l.805-.6c.102-.076.132-.218.067-.33l-.936-1.62c-.063-.113-.2-.157-.32-.106l-.935.404c-.38-.328-.816-.584-1.3-.752l-.117-1.01c-.014-.13-.123-.226-.252-.226h-1.872zM19 17.25c.966 0 1.75.783 1.75 1.75 0 .966-.784 1.75-1.75 1.75s-1.75-.784-1.75-1.75c0-.967.784-1.75 1.75-1.75z"/></symbol><symbol id="icon-advance" viewBox="0 0 24 24"><path style="line-height:normal;text-indent:0;text-align:start;text-decoration-line:none;text-decoration-style:solid;text-decoration-color:#000;text-transform:none;block-progression:tb;isolation:auto;mix-blend-mode:normal" d="M18 6v5h-6v2h6v5l6-6-6-6zM0 11v2h2v-2H0zm4 0v2h2v-2H4zm4 0v2h2v-2H8z" font-weight="400" font-family="sans-serif" white-space="normal" overflow="visible"/></symbol><symbol id="icon-advertisement-page" viewBox="0 0 24 24"><path d="M5 3c-1.105 0-2 .895-2 2v11.758l2-2V7h14v12H9.242l-2 2H19c1.103 0 2-.897 2-2V5c0-1.105-.895-2-2-2H5zm2.344 8l2.12 2.12-6.24 6.243 1.413 1.414 6.242-6.242 2.12 2.12V11H7.344z"/></symbol><symbol id="icon-back-to" viewBox="0 0 24 24"><path d="M12 2C6.477 2 2 6.477 2 12s4.477 10 10 10 10-4.477 10-10S17.523 2 12 2zm3 15h-3l-4-5 4-5h3l-4 5 4 5z"/></symbol><symbol id="icon-back" viewBox="0 0 24 24"><path d="M13 5.93L6.93 12 13 18.07l1.5-1.5L9.93 12l4.57-4.57-1.5-1.5z"/></symbol><symbol id="icon-bookmark" viewBox="0 0 24 24"><path d="M6 2c-.138 0-.272.014-.402.04C4.686 2.228 4 3.034 4 4v18l8-3 8 3V4c0-.138-.014-.272-.04-.402-.16-.782-.776-1.397-1.558-1.557-.13-.026-.264-.04-.402-.04H6z"/></symbol><symbol id="icon-briefcase" viewBox="0 0 24 24"><path d="M9 3v1H4c-1.105 0-2 .895-2 2v6c0 1.103.897 2 2 2h16c1.103 0 2-.897 2-2V6c0-1.105-.895-2-2-2h-5V3H9zm3 7c.552 0 1 .448 1 1s-.448 1-1 1-1-.448-1-1 .448-1 1-1zM2 15.443V18c0 1.105.895 2 2 2h16c1.105 0 2-.895 2-2v-2.557c-.59.344-1.268.557-2 .557H4c-.732 0-1.41-.213-2-.557z"/></symbol><symbol id="icon-calendar" viewBox="0 0 24 24"><path d="M6 1v2H5c-1.1 0-2 .9-2 2v14c0 1.1.9 2 2 2h14c1.1 0 2-.9 2-2V5c0-1.1-.9-2-2-2h-1V1h-2v2H8V1H6zM5 8h14v11H5V8z"/></symbol><symbol id="icon-cancel" viewBox="0 0 24 24"><path d="M12 2C6.47 2 2 6.47 2 12s4.47 10 10 10 10-4.47 10-10S17.53 2 12 2zm5 13.59L15.59 17 12 13.41 8.41 17 7 15.59 10.59 12 7 8.41 8.41 7 12 10.59 15.59 7 17 8.41 13.41 12 17 15.59z"/></symbol><symbol id="icon-change-theme" viewBox="0 0 24 24"><path style="line-height:normal;text-indent:0;text-align:start;text-decoration-line:none;text-decoration-style:solid;text-decoration-color:#000;text-transform:none;block-progression:tb;isolation:auto;mix-blend-mode:normal" d="M5 3c-1.093 0-2 .907-2 2v10h4v6h14V11c0-1.093-.907-2-2-2h-2V5c0-1.093-.907-2-2-2H5zm0 4h10v2H9c-1.093 0-2 .907-2 2v2H5V7zm4 4h10v2H9v-2z" font-weight="400" font-family="sans-serif" white-space="normal" overflow="visible"/></symbol><symbol id="icon-check-all" viewBox="0 0 24 24"><path d="M4 2c-1.105 0-2 .895-2 2v12c0 1.105.895 2 2 2h12c1.105 0 2-.895 2-2V4c0-1.105-.895-2-2-2H4zm9.586 4L15 7.414l-6 6-4-4L6.414 8 9 10.586 13.586 6zM20 6v14H6v2h14c1.105 0 2-.895 2-2V6h-2z"/></symbol><symbol id="icon-checked" viewBox="0 0 24 24"><path d="M11 16.4l-4.7-4.7 1.4-1.4 3.3 3.3 8.4-8.4C17.5 3.3 14.9 2 12 2 6.5 2 2 6.5 2 12s4.5 10 10 10 10-4.5 10-10c0-1.9-.5-3.6-1.4-5.1L11 16.4z"/></symbol><symbol id="icon-checkmark" viewBox="0 0 24 24"><path d="M19.28 5.28L9 15.563l-4.28-4.28-1.44 1.437 5 5 .72.686.72-.687 11-11z"/></symbol><symbol id="icon-circled-menu" viewBox="0 0 24 24"><path d="M5 3c-1.105 0-2 .895-2 2s.895 2 2 2 2-.895 2-2-.895-2-2-2zm7 0c-1.105 0-2 .895-2 2s.895 2 2 2 2-.895 2-2-.895-2-2-2zm7 0c-1.105 0-2 .895-2 2s.895 2 2 2 2-.895 2-2-.895-2-2-2zM5 10c-1.105 0-2 .895-2 2s.895 2 2 2 2-.895 2-2-.895-2-2-2zm7 0c-1.105 0-2 .895-2 2s.895 2 2 2 2-.895 2-2-.895-2-2-2zm7 0c-1.105 0-2 .895-2 2s.895 2 2 2 2-.895 2-2-.895-2-2-2zM5 17c-1.105 0-2 .895-2 2s.895 2 2 2 2-.895 2-2-.895-2-2-2zm7 0c-1.105 0-2 .895-2 2s.895 2 2 2 2-.895 2-2-.895-2-2-2zm7 0c-1.105 0-2 .895-2 2s.895 2 2 2 2-.895 2-2-.895-2-2-2z"/></symbol><symbol id="icon-clock" viewBox="0 0 24 24"><path d="M12 2C6.477 2 2 6.477 2 12s4.477 10 10 10 10-4.477 10-10S17.523 2 12 2zm3.293 14.707L11 12.414V6h2v5.586l3.707 3.707-1.414 1.414z"/></symbol><symbol id="icon-collapse-arrow" viewBox="0 0 24 24"><path d="M12 6.93L5.93 13l1.5 1.5L12 9.93l4.57 4.57 1.5-1.5L12 6.93z"/></symbol><symbol id="icon-comments" viewBox="0 0 24 24"><path d="M2 5v12c0 1.1.9 2 2 2h14l4 4-.01-18c0-1.1-.89-2-1.99-2H4c-1.1 0-2 .9-2 2zm5 1h10v2H7V6zm0 4h10v2H7v-2zm0 4h7v2H7v-2z"/></symbol><symbol id="icon-connect" viewBox="0 0 24 24"><path d="M19 3c-1.654 0-3 1.346-3 3 0 .462.114.894.3 1.285L12.587 11h-4.77C7.402 9.84 6.302 9 5 9c-1.654 0-3 1.346-3 3s1.346 3 3 3c1.302 0 2.402-.84 2.816-2h4.77l3.715 3.715c-.186.39-.3.823-.3 1.285 0 1.654 1.346 3 3 3s3-1.346 3-3-1.346-3-3-3c-.462 0-.894.114-1.285.3l-3.3-3.3 3.3-3.3c.39.186.823.3 1.285.3 1.654 0 3-1.346 3-3s-1.346-3-3-3z"/></symbol><symbol id="icon-contacts" viewBox="0 0 24 24"><path d="M18 2H6c-1.105 0-2 .895-2 2v16c0 1.105.895 2 2 2h12c1.105 0 2-.895 2-2V4c0-1.105-.895-2-2-2zm-6 4c1.7 0 3 1.3 3 3s-1.3 3-3 3-3-1.3-3-3 1.3-3 3-3zm5 12H7v-1c0-1.57 2.512-3 5-3s5 1.43 5 3v1z"/></symbol><symbol id="icon-content" viewBox="0 0 24 24"><path d="M4 3c-1.103 0-2 .897-2 2v4c0 1.103.897 2 2 2h4c1.103 0 2-.897 2-2V5c0-1.103-.897-2-2-2H4zm1 3h2v2H5V6zm7 0v2h10V6H12zm-8 7c-1.103 0-2 .897-2 2v4c0 1.103.897 2 2 2h4c1.103 0 2-.897 2-2v-4c0-1.103-.897-2-2-2H4zm2 3c.552 0 1 .448 1 1s-.448 1-1 1-1-.448-1-1 .448-1 1-1zm6 0v2h10v-2H12z"/></symbol><symbol id="icon-curved-arrow" viewBox="0 0 24 24"><path d="M15 20l7-7-7-7v4C3 10 2 5 2 5s1 11 13 11v4z"/></symbol><symbol id="icon-defense" viewBox="0 0 24 24"><path d="M12 2S5.973 3.5 4 3.5V13c0 1.055.246 2.008.656 2.875L20 5.03V3.5c-1.973 0-8-1.5-8-1.5zM8 6l1 1.5L8 9 7 7.5zm12 1.47L5.75 17.562C8.102 20.5 12 22 12 22s8-2.988 8-9zM15 14l1 1.5-1 1.5-1-1.5z"/></symbol><symbol id="icon-delete" viewBox="0 0 24 24"><path style="line-height:normal;text-indent:0;text-align:start;text-decoration-line:none;text-decoration-style:solid;text-decoration-color:#000;text-transform:none;block-progression:tb;isolation:auto;mix-blend-mode:normal" d="M4.707 3.293L3.293 4.707 10.586 12l-7.293 7.293 1.414 1.414L12 13.414l7.293 7.293 1.414-1.414L13.414 12l7.293-7.293-1.414-1.414L12 10.586 4.707 3.293z" font-weight="400" font-family="sans-serif" white-space="normal" overflow="visible"/></symbol><symbol id="icon-document" viewBox="0 0 24 24"><path d="M14 2H6c-1.1 0-2 .9-2 2v16c0 1.1.9 2 2 2h12c1.1 0 2-.9 2-2V8l-6-6zm2 16H8v-2h8v2zm0-4H8v-2h8v2zm-3-5V3.5L18.5 9H13z"/></symbol><symbol id="icon-down-arrow" viewBox="0 0 24 24"><path d="M11 3v14.07L6.43 12.5 4.93 14 12 21.07 19.07 14l-1.5-1.5L13 17.07V3h-2z"/></symbol><symbol id="icon-down-button" viewBox="0 0 24 24"><path d="M2 12c0 5.523 4.477 10 10 10s10-4.477 10-10S17.523 2 12 2 2 6.477 2 12zm15-3v3l-5 4-5-4V9l5 4 5-4z"/></symbol><symbol id="icon-download-from-the-cloud" viewBox="0 0 24 24"><path d="M19.355 10.036C18.675 6.596 15.64 4 12 4 9.108 4 6.603 5.64 5.352 8.036 2.342 8.36 0 10.906 0 14c0 3.314 2.686 6 6 6h13c2.76 0 5-2.24 5-5 0-2.64-2.052-4.78-4.645-4.964zM12 18l-5-5h3V9h4v4h3l-5 5z"/></symbol><symbol id="icon-download" viewBox="0 0 24 24"><path d="M11 2c-.552 0-1 .448-1 1v8H6l6 6 6-6h-4V3c0-.552-.448-1-1-1h-2zM2 20v2h20v-2H2z"/></symbol><symbol id="icon-downloads" viewBox="0 0 24 24"><path style="line-height:normal;text-indent:0;text-align:start;text-decoration-line:none;text-decoration-style:solid;text-decoration-color:#000;text-transform:none;block-progression:tb;isolation:auto;mix-blend-mode:normal" d="M5.75 3a1 1 0 0 0-.863.496l-1.75 3A1 1 0 0 0 3 7v12c0 1.093.907 2 2 2h14c1.093 0 2-.907 2-2V7a1 1 0 0 0-.137-.504l-1.75-3A1 1 0 0 0 18.25 3H5.75zm.574 2h11.352l1.166 2H5.158l1.166-2zM11 10h2v4h3l-4 4-4-4h3v-4z" font-weight="400" font-family="sans-serif" white-space="normal" overflow="visible"/></symbol><symbol id="icon-drag" viewBox="0 0 24 24"><path d="M12 2L8 6h3v5H6V8l-4 4 4 4v-3h5v5H8l4 4 4-4h-3v-5h5v3l4-4-4-4v3h-5V6h3l-4-4z"/></symbol><symbol id="icon-edit" viewBox="0 0 24 24"><path d="M18.414 2c-.256 0-.512.097-.707.293L16 4l4 4 1.707-1.707c.39-.39.39-1.024 0-1.414L19.12 2.292c-.194-.196-.45-.293-.706-.293zM14.5 5.5L3 17v4h4L18.5 9.5l-4-4z"/></symbol><symbol id="icon-email" viewBox="0 0 24 24"><path style="line-height:normal;text-indent:0;text-align:start;text-decoration-line:none;text-decoration-style:solid;text-decoration-color:#000;text-transform:none;block-progression:tb;isolation:auto;mix-blend-mode:normal" d="M12 2C6.49 2 2 6.49 2 12s4.49 10 10 10h5v-2h-5c-4.43 0-8-3.57-8-8s3.57-8 8-8 8 3.57 8 8v1.5c0 .84-.66 1.5-1.5 1.5s-1.5-.66-1.5-1.5V12c0-2.75-2.25-5-5-5s-5 2.25-5 5 2.25 5 5 5c1.414 0 2.688-.6 3.6-1.553.63.934 1.698 1.553 2.9 1.553 1.92 0 3.5-1.58 3.5-3.5V12c0-5.51-4.49-10-10-10zm0 7c1.67 0 3 1.33 3 3s-1.33 3-3 3-3-1.33-3-3 1.33-3 3-3z" font-weight="400" font-family="sans-serif" white-space="normal" overflow="visible"/></symbol><symbol id="icon-erase" viewBox="0 0 24 24"><path d="M14.594 2.063c-.727 0-1.45.292-2 .843l-9.688 9.688c-1.105 1.105-1.105 2.894 0 4L7 20.72c.184.178.43.276.688.28H22v-2h-8.28l7.5-7.5c1.104-1.105 1.104-2.895 0-4l-4.626-4.594c-.55-.55-1.274-.844-2-.844zM8.814 9.5l5.78 5.78-3.72 3.72h-2.75l-3.812-3.813c-.296-.296-.296-.89 0-1.187z"/></symbol><symbol id="icon-error" viewBox="0 0 24 24"><path d="M22.24 18.45L13.44 3.817C13.135 3.306 12.596 3 12 3s-1.135.305-1.44.815L1.76 18.45c-.31.52-.32 1.17-.02 1.696.296.527.857.854 1.463.854h17.595c.605 0 1.167-.327 1.464-.854.298-.527.29-1.176-.023-1.695zM13 18h-2v-2h2v2zm0-4h-2V9h2v5z"/></symbol><symbol id="icon-expand-arrow" viewBox="0 0 24 24"><path d="M7.43 9.5L5.93 11 12 17.07 18.07 11l-1.5-1.5L12 14.07 7.43 9.5z"/></symbol><symbol id="icon-external-link" viewBox="0 0 24 24"><path style="line-height:normal;text-indent:0;text-align:start;text-decoration-line:none;text-decoration-style:solid;text-decoration-color:#000;text-transform:none;block-progression:tb;isolation:auto;mix-blend-mode:normal" d="M5 3c-1.093 0-2 .907-2 2v14c0 1.093.907 2 2 2h14c1.093 0 2-.907 2-2v-7h-2v7H5V5h7V3H5zm9 0v2h3.586l-9.293 9.293 1.414 1.414L19 6.414V10h2V3h-7z" font-weight="400" font-family="sans-serif" white-space="normal" overflow="visible"/></symbol><symbol id="icon-faq" viewBox="0 0 24 24"><path d="M4 2c-1.105 0-2 .895-2 2v6c0 1.105.895 2 2 2h10c1.105 0 2-.895 2-2V4c0-1.105-.895-2-2-2H4zm4.35 2h1.298L13 9.303V10h-2l-.56-1H7.558L7 10H5v-.695L8.35 4zm.648 2.717L8.188 8H9.81L9 6.717zM17.816 12c-.413 1.163-1.512 2-2.816 2 1.103 0 2 .897 2 2v2.586l.707.707-1.414 1.414-.707-.707H13c-1.103 0-2-.897-2-2v-2c0-1.103.897-2 2-2H7v6c0 1.105.895 2 2 2h10c1.105 0 2-.895 2-2v-6c0-1.105-.895-2-2-2h-1.184zM13 16v2h2v-2h-2z"/></symbol><symbol id="icon-female-user" viewBox="0 0 24 24"><path style="line-height:normal;text-indent:0;text-align:start;text-decoration-line:none;text-decoration-style:solid;text-decoration-color:#000;text-transform:none;block-progression:tb;isolation:auto;mix-blend-mode:normal" d="M12 2C8 2 2 5 2 20h4.73c1.41 1.24 3.252 2 5.27 2s3.86-.76 5.27-2H22C22 5 16 2 12 2zm-4 9h8c1.105 0 2 .895 2 2v1c0 3.326-2.674 6-6 6s-6-2.674-6-6v-1c0-1.105.895-2 2-2z" font-weight="400" font-family="sans-serif" white-space="normal" overflow="visible"/></symbol><symbol id="icon-file" viewBox="0 0 24 24"><path d="M14 2H6c-1.102 0-2 .898-2 2v16c0 1.102.898 2 2 2h12c1.102 0 2-.898 2-2V8zm4.5 7H13V3.5z"/></symbol><symbol id="icon-fit-to-width" viewBox="0 0 24 24"><path d="M3 3v7l2.78-2.78 3 3 1.44-1.44-3-3L10 3zm11 0l2.78 2.78-3 3 1.44 1.44 3-3L21 10V3zM8.78 13.78l-3 3L3 14v7h7l-2.78-2.78 3-3zm6.44 0l-1.44 1.44 3 3L14 21h7v-7l-2.78 2.78z"/></symbol><symbol id="icon-folder" viewBox="0 0 24 24"><path d="M20 6h-8l-2-2H4c-1.1 0-2 .9-2 2v12c0 1.1.9 2 2 2h16c1.1 0 2-.9 2-2V8c0-1.1-.9-2-2-2z"/></symbol><symbol id="icon-for-you" viewBox="0 0 24 24"><path d="M19 3H5c-1.103 0-2 .897-2 2v14c0 1.103.897 2 2 2h14c1.103 0 2-.897 2-2V5c0-1.103-.897-2-2-2zM6.277 7.578c.278-.367.7-.596 1.158-.577.686.03 1.065.522 1.065.522s.38-.493 1.064-.52c.46-.02.88.21 1.158.576.966 1.276-.863 2.77-1.293 3.17-.258.24-.576.525-.765.693-.095.086-.236.086-.33 0-.19-.168-.508-.453-.765-.692-.43-.4-2.26-1.894-1.293-3.17zM18 17H6v-2h12v2zm0-4h-6v-2h6v2zm0-4h-4V7h4v2z"/></symbol><symbol id="icon-forward" viewBox="0 0 24 24"><path d="M10 5.93l-1.5 1.5L13.07 12 8.5 16.57l1.5 1.5L16.07 12 10 5.93z"/></symbol><symbol id="icon-high-priority" viewBox="0 0 24 24"><path d="M22.556 10.927l-9.483-9.483c-.592-.592-1.553-.592-2.145 0l-9.483 9.483c-.592.592-.592 1.553 0 2.145l9.483 9.483c.592.592 1.553.592 2.145 0l9.483-9.483c.592-.592.592-1.552 0-2.145zM13 17h-2v-2h2v2zm0-4h-2V7h2v6z"/></symbol><symbol id="icon-home" viewBox="0 0 24 24"><path d="M12 2.1L1 12h3v9h5v-7h6v7h5v-9h3l-4-3.6V4h-2v2.6l-5-4.5z"/></symbol><symbol id="icon-image-file" viewBox="0 0 24 24"><path d="M14 2H6c-1.1 0-2 .9-2 2v16c0 1.1.9 2 2 2h12c1.1 0 2-.9 2-2V8l-6-6zM7 18l2.5-3.333 1.5 2 2.5-3.333L17 18H7zm6-9V3.5L18.5 9H13z"/></symbol><symbol id="icon-in-progress" viewBox="0 0 24 24"><path d="M11 2.05c-2.008.2-3.842 1-5.324 2.212l1.426 1.426c1.106-.86 2.44-1.437 3.898-1.62V2.05zm2 0v2.02c3.94.495 7 3.86 7 7.932 0 4.072-3.06 7.435-7 7.93v2.02c5.046-.505 9-4.774 9-9.95 0-5.176-3.954-9.448-9-9.95zM4.262 5.677C3.048 7.158 2.252 8.992 2.052 11h2.016c.183-1.458.76-2.792 1.62-3.898L4.261 5.676zm12.03 2.617L11 13.586l-2.293-2.293-1.414 1.414L11 16.414l6.707-6.707-1.414-1.414zm-14.24 4.705c.2 2.01.996 3.844 2.21 5.326l1.427-1.428c-.86-1.106-1.437-2.44-1.62-3.898H2.05zm5.05 5.315l-1.426 1.425c1.482 1.213 3.314 2.01 5.322 2.21v-2.016c-1.457-.184-2.79-.76-3.896-1.62z"/></symbol><symbol id="icon-increase" viewBox="0 0 24 24"><path d="M22 2l-5.3.8 1.542 1.544-3.064 3.064-1.61-1.508-4.076 4.178-1.484-1.484-4.705 4.61 1.4 1.427 3.29-3.224 1.515 1.516L13.63 8.7l1.593 1.49 4.433-4.432L21.2 7.3 22 2zm-3 8v11h2V10h-2zm-4 2v9h2v-9h-2zm-4 2v7h2v-7h-2zm-4 2v5h2v-5H7zm-4 2v3h2v-3H3z"/></symbol><symbol id="icon-info" viewBox="0 0 24 24"><path d="M12 2C6.477 2 2 6.477 2 12s4.477 10 10 10 10-4.477 10-10S17.523 2 12 2zm1 15h-2v-6h2v6zm0-8h-2V7h2v2z"/></symbol><symbol id="icon-join" viewBox="0 0 24 24"><path d="M12 5c-1.656 0-3 1.344-3 3s1.344 3 3 3c2.25 0 6-3 6-3s-3.75-3-6-3zm6.344 0c-.676 0-1.293.32-1.72.813 1.036.656 1.825 1.265 2 1.406l.97.78-.97.78c-.136.11-.628.505-1.31.97.307.16.663.25 1.03.25C20.094 10 23 7.5 23 7.5S20.094 5 18.344 5zM3 7v3H0v2h3v3h2v-3h3v-2H5V7zm15.5 5c-1.2 0-2.113.313-2.813.813 2.3 1.1 3.22 2.988 3.22 3.187H23v-1.188c0-.1-1.102-2.812-4.5-2.812zM12 13c-4.602 0-6 3.313-6 3.313V18h12v-1.688S16.602 13 12 13z"/></symbol><symbol id="icon-left-3" viewBox="0 0 24 24"><path d="M9 20l-7-7 7-7v4c12 0 13-5 13-5S21 16 9 16v4z"/></symbol><symbol id="icon-list" viewBox="0 0 24 24"><path style="line-height:normal;text-indent:0;text-align:start;text-decoration-line:none;text-decoration-style:solid;text-decoration-color:#000;text-transform:none;block-progression:tb;isolation:auto;mix-blend-mode:normal" d="M3 4.5A1.5 1.5 0 0 0 1.5 6 1.5 1.5 0 0 0 3 7.5 1.5 1.5 0 0 0 4.5 6 1.5 1.5 0 0 0 3 4.5zM7 5v2h15V5H7zm-4 5.5A1.5 1.5 0 0 0 1.5 12 1.5 1.5 0 0 0 3 13.5 1.5 1.5 0 0 0 4.5 12 1.5 1.5 0 0 0 3 10.5zm4 .5v2h15v-2H7zm-4 5.5A1.5 1.5 0 0 0 1.5 18 1.5 1.5 0 0 0 3 19.5 1.5 1.5 0 0 0 4.5 18 1.5 1.5 0 0 0 3 16.5zm4 .5v2h15v-2H7z" font-weight="400" font-family="sans-serif" white-space="normal" overflow="visible"/></symbol><symbol id="icon-lock" viewBox="0 0 24 24"><path d="M12 1C8.676 1 6 3.676 6 7v1c-1.1 0-2 .9-2 2v10c0 1.1.9 2 2 2h12c1.1 0 2-.9 2-2V10c0-1.1-.9-2-2-2V7c0-3.324-2.676-6-6-6zm0 2c2.276 0 4 1.724 4 4v1H8V7c0-2.276 1.724-4 4-4zm0 10c1.1 0 2 .9 2 2s-.9 2-2 2-2-.9-2-2 .9-2 2-2z"/></symbol><symbol id="icon-mailbox" viewBox="0 0 24 24"><path style="line-height:normal;text-indent:0;text-align:start;text-decoration-line:none;text-decoration-style:solid;text-decoration-color:#000;text-transform:none;block-progression:tb;isolation:auto;mix-blend-mode:normal" d="M7 4C4.25 4 2 6.25 2 9v9c0 1.093.907 2 2 2h16c1.105 0 2-.895 2-2V9c0-2.76-2.24-5-5-5H7zm0 2c1.657 0 3 1.343 3 3v9H4V9c0-1.668 1.332-3 3-3zM6 9v2h2V9H6zm7 0h6v4h-2v-2h-4V9z" font-weight="400" font-family="sans-serif" white-space="normal" overflow="visible"/></symbol><symbol id="icon-maintenance" viewBox="0 0 24 24"><path d="M5 3L3 5l1.406 2.11c.37.556.996.89 1.664.89h.516l2.707 2.707 1.414-1.414L8 6.586V6.07c0-.668-.334-1.293-.89-1.664L5 3zm13 0c-2.21 0-4 1.79-4 4 0 .586.133 1.14.36 1.64L4.292 18.708c-.39.39-.39 1.024 0 1.414l.586.587c.39.39 1.022.39 1.413 0l5.836-5.836 5.725 5.728c.536.536 1.404.537 1.94 0l.803-.803c.536-.535.536-1.404 0-1.94L14.87 12.13l1.49-1.49c.5.227 1.054.36 1.64.36 2.21 0 4-1.79 4-4 0-.586-.132-1.14-.36-1.64L19 8l-2-2 2.64-2.64C19.14 3.13 18.587 3 18 3z"/></symbol><symbol id="icon-male-user" viewBox="0 0 24 24"><path d="M12 2C6.477 2 2 6.477 2 12s4.477 10 10 10 10-4.477 10-10S17.523 2 12 2zm0 2.75c1.795 0 3.25 1.455 3.25 3.25s-1.455 3.25-3.25 3.25S8.75 9.795 8.75 8 10.205 4.75 12 4.75zM12 20c-2.77 0-5.21-1.408-6.646-3.547C6.474 14.823 10.046 14 12 14s5.525.823 6.646 2.453C17.21 18.593 14.77 20 12 20z"/></symbol><symbol id="icon-member" viewBox="0 0 24 24"><path d="M9 4C6.79 4 5 5.79 5 8s1.79 4 4 4 4-1.79 4-4-1.79-4-4-4zm0 2c1.105 0 2 .895 2 2s-.895 2-2 2-2-.895-2-2 .895-2 2-2zm7.5 0C15.12 6 14 7.12 14 8.5s1.12 2.5 2.5 2.5S19 9.88 19 8.5 17.88 6 16.5 6zm.5 6c-1.496 0-2.598.527-3.375 1.156 2.344 1.324 3.258 3.344 3.313 3.47l.062.186V17h5v-1.656S20.797 12 17 12zm-8 1c-5.316 0-7 4-7 4v2h14v-2s-1.684-4-7-4zm0 2c3.434 0 4.53 2 4.53 2H4.47S5.61 15 9 15z"/></symbol><symbol id="icon-menu-vertical" viewBox="0 0 24 24"><path d="M11 3c-.552 0-1 .448-1 1v2c0 .552.448 1 1 1h2c.552 0 1-.448 1-1V4c0-.552-.448-1-1-1h-2zm0 7c-.552 0-1 .448-1 1v2c0 .552.448 1 1 1h2c.552 0 1-.448 1-1v-2c0-.552-.448-1-1-1h-2zm0 7c-.552 0-1 .448-1 1v2c0 .552.448 1 1 1h2c.552 0 1-.448 1-1v-2c0-.552-.448-1-1-1h-2z"/></symbol><symbol id="icon-menu" viewBox="0 0 24 24"><path style="line-height:normal;text-indent:0;text-align:start;text-decoration-line:none;text-decoration-style:solid;text-decoration-color:#000;text-transform:none;block-progression:tb;isolation:auto;mix-blend-mode:normal" d="M2 5v2h20V5H2zm0 6v2h20v-2H2zm0 6v2h20v-2H2z" font-weight="400" font-family="sans-serif" white-space="normal" overflow="visible"/></symbol><symbol id="icon-move-down" viewBox="0 0 24 24"><path style="line-height:normal;text-indent:0;text-align:start;text-decoration-line:none;text-decoration-style:solid;text-decoration-color:#000;text-transform:none;block-progression:tb;isolation:auto;mix-blend-mode:normal" d="M12 2C6.486 2 2 6.486 2 12c0 3.262 1.577 6.153 4 7.98v-2.718C4.762 15.854 4 14.018 4 12c0-4.41 3.59-8 8-8s8 3.59 8 8c0 2.018-.762 3.854-2 5.262v2.718c2.423-1.827 4-4.718 4-7.98 0-5.514-4.486-10-10-10zm-1 10v7H8l4 4 4-4h-3v-7h-2z" font-weight="400" font-family="sans-serif" white-space="normal" overflow="visible"/></symbol><symbol id="icon-move-left" viewBox="0 0 24 24"><path style="line-height:normal;text-indent:0;text-align:start;text-decoration-line:none;text-decoration-style:solid;text-decoration-color:#000;text-transform:none;block-progression:tb;isolation:auto;mix-blend-mode:normal" d="M12 2C8.738 2 5.847 3.577 4.02 6h2.718C8.146 4.762 9.982 4 12 4c4.41 0 8 3.59 8 8s-3.59 8-8 8c-2.018 0-3.854-.762-5.262-2H4.02c1.827 2.423 4.718 4 7.98 4 5.514 0 10-4.486 10-10S17.514 2 12 2zM5 8l-4 4 4 4v-3h7v-2H5V8z" font-weight="400" font-family="sans-serif" white-space="normal" overflow="visible"/></symbol><symbol id="icon-move-right" viewBox="0 0 24 24"><path style="line-height:normal;text-indent:0;text-align:start;text-decoration-line:none;text-decoration-style:solid;text-decoration-color:#000;text-transform:none;block-progression:tb;isolation:auto;mix-blend-mode:normal" d="M12 2C6.486 2 2 6.486 2 12s4.486 10 10 10c3.262 0 6.153-1.577 7.98-4h-2.718c-1.41 1.238-3.244 2-5.262 2-4.41 0-8-3.59-8-8s3.59-8 8-8c2.018 0 3.854.762 5.262 2h2.718C18.153 3.577 15.262 2 12 2zm7 6v3h-7v2h7v3l4-4-4-4z" font-weight="400" font-family="sans-serif" white-space="normal" overflow="visible"/></symbol><symbol id="icon-move-up" viewBox="0 0 24 24"><path style="line-height:normal;text-indent:0;text-align:start;text-decoration-line:none;text-decoration-style:solid;text-decoration-color:#000;text-transform:none;block-progression:tb;isolation:auto;mix-blend-mode:normal" d="M12 1L8 5h3v7h2V5h3l-4-4zM6 4.02C3.577 5.847 2 8.738 2 12c0 5.514 4.486 10 10 10s10-4.486 10-10c0-3.262-1.577-6.153-4-7.98v2.718c1.238 1.41 2 3.244 2 5.262 0 4.41-3.59 8-8 8s-8-3.59-8-8c0-2.018.762-3.854 2-5.262V4.02z" font-weight="400" font-family="sans-serif" white-space="normal" overflow="visible"/></symbol><symbol id="icon-navigation-toolbar-left" viewBox="0 0 24 24"><path style="line-height:normal;text-indent:0;text-align:start;text-decoration-line:none;text-decoration-style:solid;text-decoration-color:#000;text-transform:none;block-progression:tb;isolation:auto;mix-blend-mode:normal" d="M5 3c-1.093 0-2 .907-2 2v14c0 1.093.907 2 2 2h14c1.093 0 2-.907 2-2V5c0-1.093-.907-2-2-2H5zm1 2c.552 0 1 .448 1 1s-.448 1-1 1-1-.448-1-1 .448-1 1-1zm3 0c.552 0 1 .448 1 1s-.448 1-1 1-1-.448-1-1 .448-1 1-1zm3 0h7v14h-7V5zM5 8h5v2H5V8z" font-weight="400" font-family="sans-serif" white-space="normal" overflow="visible"/></symbol><symbol id="icon-news" viewBox="0 0 24 24"><path style="line-height:normal;text-indent:0;text-align:start;text-decoration-line:none;text-decoration-style:solid;text-decoration-color:#000;text-transform:none;block-progression:tb;isolation:auto;mix-blend-mode:normal" d="M2 3v15c0 1.654 1.346 3 3 3h14c1.645 0 3-1.355 3-3V7h-2v11c0 .565-.435 1-1 1-.552 0-1-.45-1-1V3H2zm4 3h8v3H6V6zm0 6h8v2H6v-2zm0 4h8v2H6v-2z" font-weight="400" font-family="sans-serif" white-space="normal" overflow="visible"/></symbol><symbol id="icon-next-page" viewBox="0 0 24 24"><path d="M12 2C6.477 2 2 6.477 2 12s4.477 10 10 10 10-4.477 10-10S17.523 2 12 2zm-1 15.07l-1.5-1.5L13.07 12 9.5 8.43l1.5-1.5L16.07 12 11 17.07z"/></symbol><symbol id="icon-no-synchronize" viewBox="0 0 24 24"><path d="M12 0L8 4l4 4V5c3.86 0 7 3.14 7 7 0 .88-.17 1.72-.47 2.496l1.517 1.514C20.652 14.8 21 13.442 21 12c0-4.962-4.037-9-9-9V0zM3.707 2.293L2.293 3.707l18 18 1.414-1.414-18-18zm.246 5.697C3.348 9.2 3 10.558 3 12c0 4.962 4.037 9 9 9v3l4-4-4-4v3c-3.86 0-7-3.14-7-7 0-.88.17-1.72.47-2.496L3.952 7.99z"/></symbol><symbol id="icon-notification" viewBox="0 0 24 24"><path d="M12 2c-.828 0-1.5.672-1.5 1.5v.695C7.913 4.862 6 7.205 6 10v5h12v-5c0-2.795-1.913-5.138-4.5-5.805V3.5c0-.828-.672-1.5-1.5-1.5zM4 17v2h6.27a2 2 0 0 0-.27 1 2 2 0 0 0 2 2 2 2 0 0 0 2-2 2 2 0 0 0-.27-1H20v-2H4z"/></symbol><symbol id="icon-numbered-list" viewBox="0 0 24 24"><path style="line-height:normal;text-indent:0;text-align:start;text-decoration-line:none;text-decoration-style:solid;text-decoration-color:#000;text-transform:none;block-progression:tb;isolation:auto;mix-blend-mode:normal" d="M2 4v1h1v3h1V4H2zm5 1v2h15V5H7zm-5 5v1h1.793L2 12.793V14h3v-1H3.207L5 11.207V10H2zm5 1v2h15v-2H7zm-5 5v1h2v.5H3v1h1v.5H2v1h3v-4H2zm5 1v2h15v-2H7z" font-weight="400" font-family="sans-serif" white-space="normal" overflow="visible"/></symbol><symbol id="icon-online-support" viewBox="0 0 24 24"><path d="M12 2c-4.418 0-8 3.582-8 8V11.902c-.574.547-1 1.25-1 2.098 0 1.242.858 2.163 1.943 2.613C6.243 19.723 8.85 22 12 22h3v-2h-3c-2.258 0-4.31-1.7-5.34-4.387l-.213-.55-.586-.083C5.37 14.913 5 14.515 5 14c0-.385.194-.687.498-.86L6 12.85V11c0-.552.448-1 1-1h10c.552 0 1 .448 1 1v5h-4.088a1.5 1.5 0 0 0-1.412-1 1.5 1.5 0 0 0-1.5 1.5 1.5 1.5 0 0 0 1.393 1.494A1 1 0 0 0 12.5 18H20c1.1 0 2-.9 2-2v-2c0-1.1-.9-2-2-2v-2c0-4.418-3.582-8-8-8z"/></symbol><symbol id="icon-opened-folder" viewBox="0 0 24 24"><path d="M20 6h-8l-2-2H4c-1.1 0-2 .9-2 2v12c0 1.1.9 2 2 2h16c1.1 0 2-.9 2-2V8c0-1.1-.9-2-2-2zm0 12H4V8h16v10z"/></symbol><symbol id="icon-padlock" viewBox="0 0 24 24"><path style="line-height:normal;text-indent:0;text-align:start;text-decoration-line:none;text-decoration-style:solid;text-decoration-color:#000;text-transform:none;block-progression:tb;isolation:auto;mix-blend-mode:normal" d="M12 1C9.128 1 6.72 3.046 6.123 5.787l1.955.426C8.482 4.353 10.072 3 12 3c2.276 0 4 1.724 4 4v1H6c-1.1 0-2 .9-2 2v10c0 1.1.9 2 2 2h12c1.1 0 2-.9 2-2V10c0-1.1-.9-2-2-2V7c0-3.324-2.676-6-6-6zm0 12c1.1 0 2 .9 2 2s-.9 2-2 2-2-.9-2-2 .9-2 2-2z" font-weight="400" font-family="sans-serif" white-space="normal" overflow="visible"/></symbol><symbol id="icon-picture" viewBox="0 0 24 24"><path d="M20 4H4c-1.105 0-2 .895-2 2v12c0 1.105.895 2 2 2h16c1.105 0 2-.895 2-2V6c0-1.105-.895-2-2-2zM5 17l3.5-4.5 2.5 3.01L14.5 11l4.5 6H5z"/></symbol><symbol id="icon-plus" viewBox="0 0 24 24"><path d="M12 2C6.477 2 2 6.477 2 12s4.477 10 10 10 10-4.477 10-10S17.523 2 12 2zm5 11h-4v4h-2v-4H7v-2h4V7h2v4h4v2z"/></symbol><symbol id="icon-print" viewBox="0 0 24 24"><path d="M6 3v3h12V3H6zM5 8c-1.65 0-3 1.35-3 3v6h4v4h12v-4h4v-6c0-1.65-1.35-3-3-3H5zm14 2c.6 0 1 .4 1 1s-.4 1-1 1-1-.4-1-1 .4-1 1-1zM8 14h8v5H8v-5z"/></symbol><symbol id="icon-privacy" viewBox="0 0 24 24"><path d="M12 1C8.676 1 6 3.676 6 7v1c-1.1 0-2 .9-2 2v10c0 1.1.9 2 2 2h12c1.1 0 2-.9 2-2V10c0-1.1-.9-2-2-2V7c0-3.324-2.676-6-6-6zm0 2c2.276 0 4 1.724 4 4v1H8V7c0-2.276 1.724-4 4-4zm0 8c2.2 0 4 1.8 4 4s-1.8 4-4 4-4-1.8-4-4 1.8-4 4-4zm0 2c-1.105 0-2 .895-2 2s.895 2 2 2 2-.895 2-2c0-.205-.04-.398-.098-.584-.158.343-.5.584-.902.584-.552 0-1-.448-1-1 0-.403.24-.744.584-.902-.186-.057-.38-.098-.584-.098z"/></symbol><symbol id="icon-quick-mode-off" viewBox="0 0 24 24"><path d="M3.414 2L2 3.414 8.137 9.55l6.38 6.382L20.588 22 22 20.586l-6.137-6.137L19 11h-5l1-9-5.518 6.068L3.414 2zm3.375 9.03L5 13h3.758l-1.97-1.97zm3.087 3.09L9 22l4.17-4.588-3.293-3.293z"/></symbol><symbol id="icon-quick-mode-on" viewBox="0 0 24 24"><path d="M15 2L5 13h5l-1 9 10-11h-5l1-9z"/></symbol><symbol id="icon-rating" viewBox="0 0 24 24"><path d="M19 3H5c-1.105 0-2 .895-2 2v14c0 1.105.895 2 2 2h14c1.105 0 2-.895 2-2V5c0-1.105-.895-2-2-2zm-2.77 15L12 15.45 7.77 18l1.12-4.81-3.73-3.23 4.92-.42L12 5l1.92 4.53 4.92.42-3.73 3.23L16.23 18z"/></symbol><symbol id="icon-redo" viewBox="0 0 24 24"><path d="M22 7l-3.615 3.615C16.543 8.998 14.145 8 11.5 8c-4.638 0-8.562 3.013-9.95 7.184l1.89.63c1.125-3.377 4.305-5.814 8.06-5.814 2.092 0 4 .767 5.48 2.02L13 16h9V7z"/></symbol><symbol id="icon-refresh" viewBox="0 0 24 24"><path d="M7.16 3l1.602 2H18c.55 0 1 .448 1 1v9h-3l4 5 4-5h-3V6c0-1.654-1.346-3-3-3H7.16zM4 4L0 9h3v9c0 1.654 1.346 3 3 3h10.84l-1.602-2H6c-.55 0-1-.448-1-1V9h3L4 4z"/></symbol><symbol id="icon-remove-user-group-man-man" viewBox="0 0 24 24"><path d="M13 6c-1.7 0-3 1.3-3 3s1.3 3 3 3 3-1.3 3-3-1.3-3-3-3zm6.5 0A2.5 2.5 0 0 0 17 8.5a2.5 2.5 0 0 0 2.5 2.5A2.5 2.5 0 0 0 22 8.5 2.5 2.5 0 0 0 19.5 6zM1 11v2h8v-2H1zm18.5 2c-1.2 0-2.1.3-2.8.8 2.3 1.1 3.2 3 3.2 3.2v.1H24v-1.3c0-.1-1.1-2.8-4.5-2.8zM13 14c-4.6 0-6 3.3-6 3.3V19h12v-1.7S17.6 14 13 14z"/></symbol><symbol id="icon-restart" viewBox="0 0 24 24"><path d="M2 2l2.94 2.94C3.125 6.747 2 9.242 2 12c0 5.514 4.486 10 10 10s10-4.486 10-10S17.514 2 12 2v2c4.41 0 8 3.59 8 8s-3.59 8-8 8-8-3.59-8-8c0-2.206.9-4.203 2.35-5.65L9 9V2H2z"/></symbol><symbol id="icon-return" viewBox="0 0 24 24"><path d="M8.78 2.28l-6 6-.686.72.687.72 6 6 1.44-1.44L5.936 10H17c2.754 0 5 2.246 5 5s-2.246 5-5 5h-2v2h2c3.844 0 7-3.156 7-7s-3.156-7-7-7H5.937l4.282-4.28zM3 20v2h2v-2zm4 0v2h2v-2zm4 0v2h2v-2z"/></symbol><symbol id="icon-right" viewBox="0 0 24 24"><path d="M14 4.93l-1.5 1.5L17.07 11H3v2h14.07l-4.57 4.57 1.5 1.5L21.07 12 14 4.93z"/></symbol><symbol id="icon-rotate-left" viewBox="0 0 24 24"><path d="M4 2v5h5L7.437 5.437C8.732 4.535 10.297 4 12 4c4.43 0 8 3.57 8 8s-3.57 8-8 8c-.595 0-1.188-.092-1.764-.223L9.8 21.754c.717.164 1.457.246 2.2.246 5.51 0 10-4.49 10-10S17.51 2 12 2c-2.247 0-4.328.745-6 2L4 2zM2.002 12c.012.753.104 1.537.277 2.26l1.945-.477C4.087 13.203 4.01 12.605 4 12H2.002zm2.828 3.47l-1.79.9c.327.67.73 1.308 1.198 1.89l1.55-1.28c-.373-.466-.695-.972-.958-1.51zm2.225 2.772l-1.237 1.59c.583.465 1.216.866 1.883 1.188l.86-1.83c-.53-.258-1.038-.576-1.505-.948z"/></symbol><symbol id="icon-rotate-right" viewBox="0 0 24 24"><path d="M12.002 2c-5.51 0-10 4.49-10 10s4.49 10 10 10c.743 0 1.483-.082 2.2-.246l-.436-1.977c-.576.13-1.17.223-1.764.223-4.43 0-8-3.57-8-8s3.57-8 8-8c1.703 0 3.268.535 4.562 1.438L15.002 7h5V2l-2 2c-1.672-1.255-3.753-2-6-2zm8 10c-.01.605-.087 1.204-.225 1.783l1.944.477c.174-.723.268-1.507.28-2.26h-1.998zm-.83 3.47c-.263.537-.587 1.044-.96 1.51l1.552 1.28c.467-.582.87-1.22 1.2-1.89l-1.792-.9zm-2.227 2.772c-.466.372-.973.69-1.506.947l.86 1.83c.667-.322 1.3-.723 1.884-1.188l-1.24-1.59z"/></symbol><symbol id="icon-save-as" viewBox="0 0 24 24"><path d="M5 3c-1.11 0-2 .9-2 2v14c0 1.1.89 2 2 2h11.172l-2.504-2.506c-.477.318-1.05.506-1.668.506-1.66 0-3-1.34-3-3s1.34-3 3-3h5c.53 0 1.04.21 1.414.586L21 16.172V7l-4-4H5zm0 2h10v4H5V5zm10 10v2l5.146 5.146 2-2L17 15h-2zm7.854 5.854l-2 2 1 1c.195.195.512.195.707 0l1.294-1.293c.195-.195.195-.51 0-.706l-1-1z"/></symbol><symbol id="icon-save" viewBox="0 0 24 24"><path d="M17 3H5c-1.11 0-2 .9-2 2v14c0 1.1.89 2 2 2h14c1.1 0 2-.9 2-2V7l-4-4zm-5 16c-1.66 0-3-1.34-3-3s1.34-3 3-3 3 1.34 3 3-1.34 3-3 3zm3-10H5V5h10v4z"/></symbol><symbol id="icon-search" viewBox="0 0 24 24"><path d="M9 2C5.146 2 2 5.146 2 9s3.146 7 7 7c1.748 0 3.345-.652 4.574-1.72l.426.427V16l6 6 2-2-6-6h-1.293l-.426-.426C15.35 12.344 16 10.748 16 9c0-3.854-3.146-7-7-7zm0 2c2.773 0 5 2.227 5 5s-2.227 5-5 5-5-2.227-5-5 2.227-5 5-5z"/></symbol><symbol id="icon-services" viewBox="0 0 24 24"><path d="M16.064 2c-.13 0-.236.097-.252.225l-.117 1.01c-.484.17-.92.425-1.3.753l-.938-.404c-.118-.05-.254-.007-.318.105l-.94 1.62c-.064.112-.033.254.07.33l.808.6c-.047.247-.078.5-.078.76s.03.513.078.76l-.808.6c-.103.075-.133.217-.07.33l.94 1.62c.063.113.2.16.317.108l.938-.406c.38.328.816.584 1.3.752l.117 1.01c.016.13.123.226.252.226h1.872c.13 0 .236-.097.252-.225l.117-1.01c.484-.17.923-.424 1.302-.753l.936.402c.118.05.254.007.318-.105l.94-1.623c.064-.11.033-.253-.07-.33l-.806-.6C20.97 7.513 21 7.26 21 7c0-.26-.03-.513-.078-.76l.808-.6c.103-.075.133-.217.07-.33l-.94-1.62c-.063-.113-.2-.16-.317-.108l-.938.406c-.38-.328-.816-.584-1.3-.752l-.117-1.01c-.015-.13-.123-.226-.252-.226h-1.872zM17 5.25c.966 0 1.75.784 1.75 1.75 0 .967-.784 1.75-1.75 1.75S15.25 7.967 15.25 7c0-.966.784-1.75 1.75-1.75zM7.064 9c-.13 0-.237.097-.252.225L6.64 10.71c-.81.23-1.537.642-2.122 1.212l-1.36-.586c-.118-.05-.254-.007-.318.105l-.938 1.623c-.065.11-.034.253.07.33l1.196.886c-.1.392-.168.796-.168 1.22 0 .424.07.828.168 1.22l-1.197.89c-.102.075-.132.217-.068.33l.938 1.62c.064.113.2.157.318.106l1.36-.588c.585.57 1.313.98 2.12 1.21l.175 1.487c.014.128.122.225.25.225h1.873c.13 0 .236-.097.252-.225l.173-1.486c.81-.23 1.537-.642 2.122-1.212l1.36.586c.118.05.254.007.318-.105l.938-1.622c.065-.11.034-.254-.07-.33l-1.196-.887c.1-.392.168-.796.168-1.22 0-.424-.07-.828-.168-1.22l1.197-.89c.102-.075.132-.217.068-.33l-.938-1.62c-.064-.113-.2-.157-.318-.106l-1.36.588c-.585-.57-1.313-.98-2.12-1.21l-.175-1.487C9.174 9.097 9.066 9 8.938 9H7.063zM8 13.5c1.105 0 2 .895 2 2s-.895 2-2 2-2-.895-2-2 .895-2 2-2z"/></symbol><symbol id="icon-share" viewBox="0 0 24 24"><path d="M18 2a3 3 0 0 0-3 3 3 3 0 0 0 .055.56L7.94 9.71A3 3 0 0 0 6 9a3 3 0 0 0-3 3 3 3 0 0 0 3 3 3 3 0 0 0 1.936-.713l7.12 4.152A3 3 0 0 0 15 19a3 3 0 0 0 3 3 3 3 0 0 0 3-3 3 3 0 0 0-3-3 3 3 0 0 0-1.938.713L8.945 12.56A3 3 0 0 0 9 12a3 3 0 0 0-.055-.56l7.116-4.15A3 3 0 0 0 18 8a3 3 0 0 0 3-3 3 3 0 0 0-3-3z"/></symbol><symbol id="icon-slide-up" viewBox="0 0 24 24"><path d="M12 22c5.523 0 10-4.477 10-10S17.523 2 12 2 2 6.477 2 12s4.477 10 10 10zm0-11l-5 4v-3l5-4 5 4v3l-5-4z"/></symbol><symbol id="icon-small-icons" viewBox="0 0 24 24"><path d="M3 2c-.552 0-1 .448-1 1v3c0 .552.448 1 1 1h3c.552 0 1-.448 1-1V3c0-.552-.448-1-1-1H3zm7 0c-.552 0-1 .448-1 1v3c0 .552.448 1 1 1h3c.552 0 1-.448 1-1V3c0-.552-.448-1-1-1h-3zm7 0c-.552 0-1 .448-1 1v3c0 .552.448 1 1 1h3c.552 0 1-.448 1-1V3c0-.552-.448-1-1-1h-3zM4 4h1v1H4V4zm7.5 0c.276 0 .5.224.5.5s-.224.5-.5.5-.5-.224-.5-.5.224-.5.5-.5zM18 4h1v1h-1V4zM3 9c-.552 0-1 .448-1 1v3c0 .552.448 1 1 1h3c.552 0 1-.448 1-1v-3c0-.552-.448-1-1-1H3zm7 0c-.552 0-1 .448-1 1v3c0 .552.448 1 1 1h3c.552 0 1-.448 1-1v-3c0-.552-.448-1-1-1h-3zm7 0c-.552 0-1 .448-1 1v3c0 .552.448 1 1 1h3c.552 0 1-.448 1-1v-3c0-.552-.448-1-1-1h-3zM4.5 11c.276 0 .5.224.5.5s-.224.5-.5.5-.5-.224-.5-.5.224-.5.5-.5zm6.5 0h1v1h-1v-1zm7.5 0c.276 0 .5.224.5.5s-.224.5-.5.5-.5-.224-.5-.5.224-.5.5-.5zM3 16c-.552 0-1 .448-1 1v3c0 .552.448 1 1 1h3c.552 0 1-.448 1-1v-3c0-.552-.448-1-1-1H3zm7 0c-.552 0-1 .448-1 1v3c0 .552.448 1 1 1h3c.552 0 1-.448 1-1v-3c0-.552-.448-1-1-1h-3zm7 0c-.552 0-1 .448-1 1v3c0 .552.448 1 1 1h3c.552 0 1-.448 1-1v-3c0-.552-.448-1-1-1h-3zM4 18h1v1H4v-1zm7.5 0c.276 0 .5.224.5.5s-.224.5-.5.5-.5-.224-.5-.5.224-.5.5-.5zm6.5 0h1v1h-1v-1z"/></symbol><symbol id="icon-sort-down" viewBox="0 0 24 24"><path d="M7 10l5 5 5-5z"/></symbol><symbol id="icon-sort-up" viewBox="0 0 24 24"><path d="M12 9l-5 5h10z"/></symbol><symbol id="icon-sort" viewBox="0 0 24 24"><path d="M12 3l-8 8h16l-8-8zM4 13l8 8 8-8H4z"/></symbol><symbol id="icon-speech-bubble" viewBox="0 0 24 24"><path d="M4 3c-1.1 0-2 .9-2 2v12l3-3h9c1.1 0 2-.9 2-2V5c0-1.1-.9-2-2-2H4zm14 5v4c0 2.206-1.794 4-4 4H8v1c0 1.1.9 2 2 2h9l3 3V10c0-1.1-.9-2-2-2h-2z"/></symbol><symbol id="icon-squared-menu" viewBox="0 0 24 24"><path d="M4 3c-.552 0-1 .448-1 1v2c0 .552.448 1 1 1h2c.552 0 1-.448 1-1V4c0-.552-.448-1-1-1H4zm7 0c-.552 0-1 .448-1 1v2c0 .552.448 1 1 1h2c.552 0 1-.448 1-1V4c0-.552-.448-1-1-1h-2zm7 0c-.552 0-1 .448-1 1v2c0 .552.448 1 1 1h2c.552 0 1-.448 1-1V4c0-.552-.448-1-1-1h-2zM4 10c-.552 0-1 .448-1 1v2c0 .552.448 1 1 1h2c.552 0 1-.448 1-1v-2c0-.552-.448-1-1-1H4zm7 0c-.552 0-1 .448-1 1v2c0 .552.448 1 1 1h2c.552 0 1-.448 1-1v-2c0-.552-.448-1-1-1h-2zm7 0c-.552 0-1 .448-1 1v2c0 .552.448 1 1 1h2c.552 0 1-.448 1-1v-2c0-.552-.448-1-1-1h-2zM4 17c-.552 0-1 .448-1 1v2c0 .552.448 1 1 1h2c.552 0 1-.448 1-1v-2c0-.552-.448-1-1-1H4zm7 0c-.552 0-1 .448-1 1v2c0 .552.448 1 1 1h2c.552 0 1-.448 1-1v-2c0-.552-.448-1-1-1h-2zm7 0c-.552 0-1 .448-1 1v2c0 .552.448 1 1 1h2c.552 0 1-.448 1-1v-2c0-.552-.448-1-1-1h-2z"/></symbol><symbol id="icon-staff" viewBox="0 0 24 24"><path style="line-height:normal;text-indent:0;text-align:start;text-decoration-line:none;text-decoration-style:solid;text-decoration-color:#000;text-transform:none;block-progression:tb;isolation:auto;mix-blend-mode:normal" d="M12 5c-1.645 0-3 1.355-3 3s1.355 3 3 3 3-1.355 3-3-1.355-3-3-3zM5 7a2 2 0 0 0-2 2 2 2 0 0 0 2 2 2 2 0 0 0 2-2 2 2 0 0 0-2-2zm14 0a2 2 0 0 0-2 2 2 2 0 0 0 2 2 2 2 0 0 0 2-2 2 2 0 0 0-2-2zM5 13c-2.185 0-4 .91-4 2.217V17h3v-.783c0-1.255.527-2.34 1.46-3.194C5.306 13.013 5.156 13 5 13zm7 0c-3.532 0-6 1.323-6 3.217V19h12v-2.783C18 14.323 15.532 13 12 13zm7 0c-.157 0-.307.014-.46.023.933.854 1.46 1.94 1.46 3.194V17h3v-1.783C23 13.91 21.185 13 19 13z" font-weight="400" font-family="sans-serif" white-space="normal" overflow="visible"/></symbol><symbol id="icon-submit-progress" viewBox="0 0 24 24"><path d="M11 2.05c-2.008.2-3.842 1-5.324 2.212l1.426 1.426c1.106-.86 2.44-1.437 3.898-1.62V2.05zm2 0v2.02c3.94.495 7 3.86 7 7.932 0 4.072-3.06 7.435-7 7.93v2.02c5.046-.505 9-4.774 9-9.95 0-5.176-3.954-9.448-9-9.95zM4.262 5.677C3.048 7.158 2.252 8.992 2.052 11h2.016c.183-1.458.76-2.792 1.62-3.898L4.261 5.676zM11 7v6H8l4 4 4-4h-3V7h-2zm-8.95 5.998c.2 2.01.998 3.844 2.212 5.326l1.427-1.428c-.86-1.106-1.437-2.44-1.62-3.898H2.05zm5.052 5.315l-1.426 1.425c1.482 1.213 3.314 2.01 5.322 2.21v-2.016c-1.457-.184-2.79-.76-3.896-1.62z"/></symbol><symbol id="icon-support" viewBox="0 0 24 24"><path d="M20.87 7.795l-.393-1.872L17.57 9H15V6.43l3.078-2.922-1.877-.386C15.81 3.042 15.405 3 15 3c-3.31 0-6 2.717-6 6.056 0 .42.05.845.153 1.285L2.94 16.445c-1.253 1.27-1.253 3.332 0 4.6.61.616 1.423.956 2.29.956.868 0 1.682-.34 2.28-.946l6.23-6.12c.43.066.847.066 1.26.066 3.364 0 6-2.61 6-5.944 0-.422-.044-.847-.13-1.26z"/></symbol><symbol id="icon-synchronize" viewBox="0 0 24 24"><path d="M12 0L8 4l4 4V5c3.86 0 7 3.14 7 7 0 .88-.17 1.72-.47 2.496l1.517 1.514C20.652 14.8 21 13.442 21 12c0-4.962-4.037-9-9-9V0zM3.953 7.99C3.348 9.2 3 10.558 3 12c0 4.962 4.037 9 9 9v3l4-4-4-4v3c-3.86 0-7-3.14-7-7 0-.88.17-1.72.47-2.496L3.952 7.99z"/></symbol><symbol id="icon-toolbox" viewBox="0 0 24 24"><path style="line-height:normal;text-indent:0;text-align:start;text-decoration-line:none;text-decoration-style:solid;text-decoration-color:#000;text-transform:none;block-progression:tb;isolation:auto;mix-blend-mode:normal" d="M9 3v1H4c-1.105 0-2 .895-2 2v2h20V6c0-1.105-.895-2-2-2h-5V3H9zm-7 7v8c0 1.103.897 2 2 2h16c1.103 0 2-.897 2-2v-8h-3v1h-4v-1H9v1H5v-1H2z" font-weight="400" font-family="sans-serif" white-space="normal" overflow="visible"/></symbol><symbol id="icon-trash-can" viewBox="0 0 24 24"><path d="M10 2L9 3H4v2h16V3h-5l-1-1h-4zM5 7v13c0 1.1.9 2 2 2h10c1.1 0 2-.9 2-2V7H5z"/></symbol><symbol id="icon-undo" viewBox="0 0 24 24"><path d="M2 7v9h9l-3.62-3.62c1.385-1.168 3.165-1.88 5.12-1.88 3.534 0 6.525 2.295 7.584 5.473l2.367-.79C21.063 11.014 17.14 8 12.5 8c-2.646 0-5.043.998-6.885 2.615L2 7z"/></symbol><symbol id="icon-up" viewBox="0 0 24 24"><path d="M12 2.93L4.93 10l1.5 1.5L11 6.93V21h2V6.93l4.57 4.57 1.5-1.5L12 2.93z"/></symbol><symbol id="icon-upload-to-the-cloud" viewBox="0 0 24 24"><path d="M19.355 10.036C18.675 6.596 15.64 4 12 4 9.108 4 6.603 5.64 5.352 8.036 2.342 8.36 0 10.906 0 14c0 3.314 2.686 6 6 6h13c2.76 0 5-2.24 5-5 0-2.64-2.052-4.78-4.645-4.964zM12 8l5 5h-3v4h-4v-4H7l5-5z"/></symbol><symbol id="icon-upload" viewBox="0 0 24 24"><path d="M12 2L6 8h4v8c0 .552.448 1 1 1h2c.552 0 1-.448 1-1V8h4l-6-6zM2 20v2h20v-2H2z"/></symbol><symbol id="icon-user-male" viewBox="0 0 24 24"><path style="line-height:normal;text-indent:0;text-align:start;text-decoration-line:none;text-decoration-style:solid;text-decoration-color:#000;text-transform:none;block-progression:tb;isolation:auto;mix-blend-mode:normal" d="M12 2c-4.418 0-8 3.582-8 8V11.902c-.574.547-1 1.25-1 2.098 0 1.242.858 2.163 1.943 2.613C6.243 19.723 8.85 22 12 22c3.15 0 5.756-2.277 7.057-5.387C20.142 16.163 21 15.243 21 14c0-.847-.426-1.55-1-2.098V10c0-4.418-3.582-8-8-8zm-5 8h10c.552 0 1 .448 1 1V12.852l.502.287c.304.173.498.475.498.86 0 .515-.37.913-.86.98l-.587.082-.213.55C16.31 18.3 14.258 20 12 20s-4.31-1.7-5.34-4.387l-.213-.55-.586-.083C5.37 14.913 5 14.515 5 14c0-.385.194-.687.498-.86L6 12.85V11c0-.552.448-1 1-1z" font-weight="400" font-family="sans-serif" white-space="normal" overflow="visible"/></symbol><symbol id="icon-user" viewBox="0 0 24 24"><path d="M12 3a4 4 0 0 0-4 4 4 4 0 0 0 4 4 4 4 0 0 0 4-4 4 4 0 0 0-4-4zM8.81 14.393C5.995 15.017 3 16.385 3 18.5V21h18v-2.5c0-2.115-2.994-3.483-5.81-4.107C14.46 15.363 13.307 16 12 16s-2.46-.636-3.19-1.607z"/></symbol><symbol id="icon-zip" viewBox="0 0 24 24"><path d="M7 2c-1.094 0-2 .906-2 2v4c-1.105 0-2 .895-2 2v5c0 1.105.895 2 2 2v3c0 1.094.906 2 2 2h12c1.094 0 2-.906 2-2V4c0-1.094-.906-2-2-2zm0 2h12v6c0-1.105-.895-2-2-2H7zm-.813 6.09h3.21v.594l-2.014 3.55h2.054v.832h-3.23v-.605l2.03-3.534h-2.05zm4.262 0h1.003v4.976H10.45zm2.198.004h1.696c.254 0 .476.04.676.12.2.083.37.196.51.345.138.143.243.32.318.518.074.203.11.422.11.66 0 .24-.036.46-.11.653-.075.196-.18.364-.317.5-.14.137-.31.243-.51.317-.2.074-.426.11-.676.11h-.692v1.75h-1.004zm1.004.836v1.55h.692c.105 0 .195-.02.27-.054.073-.035.14-.09.187-.153.052-.066.087-.14.106-.23.024-.09.035-.19.035-.297 0-.105-.01-.21-.034-.31-.02-.096-.054-.182-.105-.26-.046-.074-.11-.133-.187-.18-.074-.047-.164-.066-.27-.066zM19 15v5H7v-3h10c1.105 0 2-.895 2-2z"/></symbol><symbol id="icon-zoom-in" viewBox="0 0 24 24"><path d="M9 2C5.146 2 2 5.146 2 9s3.146 7 7 7c1.748 0 3.345-.652 4.574-1.72l.426.427V16l6 6 2-2-6-6h-1.293l-.426-.426C15.35 12.344 16 10.748 16 9c0-3.854-3.146-7-7-7zm0 2c2.773 0 5 2.227 5 5s-2.227 5-5 5-5-2.227-5-5 2.227-5 5-5zM8 6v2H6v2h2v2h2v-2h2V8h-2V6H8z"/></symbol><symbol id="icon-zoom-out" viewBox="0 0 24 24"><path d="M9 2C5.146 2 2 5.146 2 9s3.146 7 7 7c1.748 0 3.345-.652 4.574-1.72l.426.427V16l6 6 2-2-6-6h-1.293l-.426-.426C15.35 12.344 16 10.748 16 9c0-3.854-3.146-7-7-7zm0 2c2.773 0 5 2.227 5 5s-2.227 5-5 5-5-2.227-5-5 2.227-5 5-5zM6 8v2h6V8H6z"/></symbol></defs></svg>